<svg width="795" height="584" fill="none" xmlns="http://www.w3.org/2000/svg"><path d="M227.699 288.07l-44.74 198.13 497.101-9.738 36.04-222.43-488.401 34.038z" fill="#4370FF"/><path d="M211.495 359.83l422.617-22.477v-77.608l-36.695 2.341-381.146 82.563-4.776 15.181z" fill="#283DA5"/><path d="M72.355 114.82L56.199 368.038l559.238-51.956L603.01 67.596 72.355 114.82z" fill="#FF4349"/><path d="M214.338 148l-17.232 172.997-49.27 6.473 11.288-113.359c-8.558 6.927-16.743 12.699-24.56 17.313-7.819 4.615-17.512 9.325-29.086 14.126l3.86-38.752c17.098-7.36 30.595-15.278 40.49-23.757 9.89-8.475 17.96-18.39 24.207-29.747L214.338 148zm89.731 28.917c4.377-8.398 10.591-13.129 18.643-14.185 7.896-1.037 13.429 2.069 16.6 9.325 3.172 7.258 3.635 22.18 1.386 44.764-1.535 15.393-3.52 26.838-5.96 34.332-2.438 7.5-5.638 13.168-9.602 17.009-3.963 3.84-8.415 6.087-13.358 6.736-7.495.984-12.82-2.23-15.976-9.639-3.159-7.409-3.659-21.944-1.502-43.602 2.136-21.425 5.39-36.338 9.768-44.74h.001zm-58.132 86.534c1.267 10.561 3.704 18.692 7.306 24.404 4.94 8.054 11.73 13.764 20.366 17.136 8.633 3.367 20.325 4.084 35.078 2.146 26.31-3.457 45.558-13.045 57.746-28.771 12.19-15.724 19.82-39.02 22.894-69.881 1.372-13.769 1.054-26.779-.95-39.037-1.01-6.434-2.643-11.962-4.899-16.59-2.253-4.63-5.548-8.89-9.88-12.788-4.333-3.893-10.144-6.756-17.44-8.586-7.295-1.826-16.839-1.969-28.637-.419-24.557 3.227-43.482 12.09-56.766 26.583-13.284 14.494-21.537 37.908-24.757 70.24-1.31 13.151-1.33 25.004-.061 35.563zm224.364-62.794c2.135-21.426 5.39-36.339 9.768-44.741 4.377-8.398 10.594-13.126 18.645-14.185 7.894-1.037 13.427 2.072 16.599 9.325 3.174 7.258 3.634 22.18 1.385 44.765-1.532 15.392-3.52 26.837-5.96 34.334-2.438 7.497-5.636 13.166-9.601 17.006-3.963 3.843-8.413 6.087-13.359 6.736-7.494.985-12.819-2.229-15.976-9.638-3.158-7.407-3.658-21.945-1.501-43.603v.001zm-48.303 6.231c-1.31 13.15-1.33 25.003-.059 35.562 1.265 10.562 3.703 18.694 7.304 24.407 4.941 8.051 11.73 13.764 20.367 17.133 8.634 3.367 20.327 4.084 35.077 2.146 26.31-3.457 45.56-13.045 57.746-28.769 12.19-15.726 19.821-39.02 22.894-69.883 1.372-13.766 1.057-26.778-.949-39.036-1.01-6.434-2.644-11.963-4.9-16.59-2.25-4.63-5.545-8.889-9.879-12.786-4.334-3.896-10.145-6.759-17.44-8.589-7.293-1.826-16.837-1.968-28.637-.416-24.558 3.224-43.48 12.089-56.766 26.58-13.284 14.495-21.537 37.908-24.758 70.241zM296.732 448.23l-20.301.39-.953-49.675-22.367.429.953 49.674-20.301.389-1.263-65.843 62.969-1.207 1.263 65.843zm12.211-66.101l33.82-.649c7.366-.141 12.909 1.505 16.629 4.938 3.75 3.433 5.688 8.383 5.811 14.851.128 6.647-1.779 11.88-5.719 15.7-3.911 3.819-9.968 5.807-18.172 5.965l-11.139.213.468 24.433-20.435.392-1.263-65.843zm20.974 27.679l4.986-.096c3.922-.075 6.664-.801 8.225-2.179 1.561-1.408 2.321-3.175 2.28-5.301-.04-2.066-.762-3.804-2.167-5.215-1.405-1.411-4.009-2.08-7.811-2.007l-5.794.111.281 14.687zm108.602-30.163l1.263 65.843-19.134.367-.693-36.156-23.964 36.628-19.178.368-1.263-65.843 19.179-.368.698 36.425 24.094-36.9 18.998-.364zm75.37 64.422l-20.346.39-.469-24.478c-6.162 3.563-12.043 5.398-17.642 5.506-6.707.128-12.269-1.742-16.687-5.611-4.418-3.899-6.693-9.307-6.826-16.224l-.465-24.253 20.346-.39.388 20.211c.061 3.204.872 5.659 2.432 7.367 1.561 1.707 3.778 2.533 6.653 2.478 5.329-.102 9.162-1.763 11.496-4.983l-.488-25.466 20.346-.39 1.262 65.843zm75.271-67.31l1.262 65.843-19.133.367-.693-36.156-23.965 36.629-19.178.367-1.262-65.843 19.178-.368.698 36.425 24.094-36.9 18.999-.364zm13.698-.263l20.346-.39.442 23.041 22.232-.426-.442-23.041 20.436-.392 1.262 65.843-20.435.392-.511-26.634-22.232.427.51 26.633-20.346.39-1.262-65.843z" fill="#fff"/><path opacity=".2" d="M179.358 550.835c0-5.924 117.384-10.726 262.184-10.726s262.184 4.802 262.184 10.726c0 5.924-117.384 10.726-262.184 10.726s-262.184-4.802-262.184-10.726z" fill="#1C0000" fill-opacity=".41"/><defs><linearGradient id="paint0_linear" x1="122.22" y1="376.71" x2="153.99" y2="571.27" gradientUnits="userSpaceOnUse"><stop stop-color="#AA3638"/><stop offset=".06" stop-color="#C3393D"/><stop offset=".14" stop-color="#D93D41"/><stop offset=".22" stop-color="#EA3F44"/><stop offset=".33" stop-color="#F64147"/><stop offset=".48" stop-color="#FD4248"/><stop offset=".9" stop-color="#FF4349"/></linearGradient><linearGradient id="paint1_linear" x1="180.9" y1="438.53" x2="229.37" y2="751.73" gradientUnits="userSpaceOnUse"><stop stop-color="#AA3638"/><stop offset=".06" stop-color="#C3393D"/><stop offset=".14" stop-color="#D93D41"/><stop offset=".22" stop-color="#EA3F44"/><stop offset=".33" stop-color="#F64147"/><stop offset=".48" stop-color="#FD4248"/><stop offset=".9" stop-color="#FF4349"/></linearGradient></defs></svg>