<svg width="1031" height="672" fill="none" xmlns="http://www.w3.org/2000/svg"><path d="M0 651.552c0-11.322 193.86-20.5 433-20.5s433 9.178 433 20.5-193.86 20.5-433 20.5-433-9.178-433-20.5z" fill="#4370FF"/><path d="M619.552 234.726c-2.491-10.197-11.666-17.778-22.635-17.778-10.966 0-20.14 7.581-22.632 17.778h45.267zm121.835 0c-.685-18.54-15.922-33.364-34.632-33.364-18.71 0-33.947 14.824-34.631 33.364h69.263z" fill="#DEE6FF"/><path d="M682.829 234.726a41.257 41.257 0 007.452-23.704c0-22.901-18.565-41.467-41.466-41.467s-41.465 18.567-41.465 41.467a41.25 41.25 0 007.452 23.704h68.027z" fill="#DEE6FF"/><path d="M299.4 133.515c-12.411-30.476 2.233-65.242 32.709-77.653 30.476-12.41 65.242 2.234 77.653 32.71 12.41 30.475-2.234 65.242-32.71 77.652-30.476 12.41-65.242-2.234-77.653-32.71l.001.001z" fill="#F18A7D"/><path d="M385.082 59.862a59.288 59.288 0 018.4 30.5c0 32.906-26.677 59.583-59.583 59.583a59.287 59.287 0 01-30.5-8.4c10.399 17.412 29.425 29.078 51.18 29.078 32.907 0 59.581-26.674 59.581-59.58 0-21.757-11.665-40.782-29.078-51.181z" fill="#FF4349"/><path d="M672.813 324.002l45.882 13.317-5.899 17.37-47.527-10.677-45.849-37.895c-6.08-5.187-4.86-14.901 2.312-18.426a11.111 11.111 0 0112.348 1.73l38.733 34.581z" fill="#F8BAA6"/><path d="M716.602 336.654l-4.309 18.244a3.743 3.743 0 002.78 4.5l11.392 2.691 6.029-25.524-11.392-2.69a3.73 3.73 0 00-2.826.458 3.737 3.737 0 00-1.674 2.322v-.001z" fill="#F8BAA6"/><path d="M735.782 360.922a3.277 3.277 0 01-3.945 2.434l-12.54-2.96 1.506-6.381 12.542 2.962a3.278 3.278 0 012.437 3.945z" fill="#FFCAB6"/><path d="M737.288 354.54a3.282 3.282 0 01-2.665 2.483 3.274 3.274 0 01-1.278-.046l-12.542-2.962 1.508-6.382 12.54 2.962a3.274 3.274 0 012.437 3.945z" fill="#FFCAB6"/><path d="M738.796 348.158a3.278 3.278 0 01-3.945 2.437l-12.54-2.962 1.506-6.38 12.542 2.963a3.282 3.282 0 012.035 1.466 3.274 3.274 0 01.402 2.476z" fill="#F8BAA6"/><path d="M740.302 341.779a3.282 3.282 0 01-2.665 2.483 3.293 3.293 0 01-1.278-.046l-12.542-2.962 1.509-6.382 12.539 2.962a3.274 3.274 0 012.437 3.945z" fill="#F8BAA6"/><path d="M609.651 211.26s3.826 22.458-14.232 27.494c-16.203 4.517-9.72-22.667-9.72-22.667s10.698-4.929 13.27-4.824c2.568.104 10.682-.003 10.682-.003z" fill="#54191F"/><path d="M625.78 420.522l4.273 195.195H602.63l-21.373-157.323v-36.69s46.471-3.13 44.523-1.182z" fill="#4658C6"/><path d="M538.4 418.855l-5.942 196.862h27.424l21.375-157.323v-36.69s-44.806-4.798-42.857-2.85v.001z" fill="#5A66D7"/><path d="M545.408 273.052l37.683-6.972 37.686 6.971c5.844.991 9.276 4.612 9.276 10.785v131.952c0 4.458-4.152 8.07-9.276 8.07h-75.369c-5.124 0-9.276-3.612-9.276-8.07V283.836c0-6.173 3.432-9.794 9.276-10.785v.001z" fill="#7FAEF2"/><path d="M589.747 268.862l-16.041-.905-11.913 155.9h50.865l-2.668-19.602s-5.509-33.178-6.285-47.35c-.774-14.173-13.958-88.042-13.958-88.042v-.001z" fill="#fff"/><path d="M603.705 356.905c-.7-12.806-11.524-74.32-13.61-86.084l-17.28 153.037h32.281l4.742-20.534c-.891-5.444-5.434-33.646-6.133-46.42v.001z" fill="#EFF0F0"/><path d="M573.705 267.955l-8.512 164.068-43.286-1.888 12.762-109.318 39.036-52.862z" fill="#7FAEF2"/><path d="M573.705 267.955l-10.823 19.24 9.36 7.322 1.463-26.562z" fill="#659DE0"/><path d="M656.732 302.305L637 325l-35.067-31.099 13.895-15.44 12.18-1.461 28.724 25.305z" fill="#7FAEF2"/><path d="M581.727 279.482a8.023 8.023 0 008.02-8.021v-6.446a4.119 4.119 0 00-4.114-4.117h-7.81a4.118 4.118 0 00-4.118 4.117v6.446c0 2.128.845 4.168 2.35 5.672a8.018 8.018 0 005.672 2.35v-.001z" fill="#F8BAA6"/><path d="M625.033 615.717l1.112 13.063h-16.817l-1.815-13.063h17.52zm-87.448 0l-1.112 13.063h16.816l1.816-13.063h-17.52z" fill="#FFCAB6"/><path d="M568.163 199.42l35.542 35.254-46.554-2.807c-17.04-34.072 11.012-32.447 11.012-32.447z" fill="#54191F"/><path d="M553.167 238.751a7.95 7.95 0 0010.985 7.347 7.944 7.944 0 004.304-10.382 7.925 7.925 0 00-1.721-2.579 7.951 7.951 0 00-13.569 5.614h.001z" fill="#FFCAB6"/><path d="M557.034 238.754a4.08 4.08 0 108.16.002 4.08 4.08 0 00-8.16-.002z" fill="#FF9781"/><path d="M582.397 270.189c11.76.005 21.298-9.525 21.303-21.285l.012-31.073-42.59-.015-.013 31.07c-.003 11.76 9.528 21.298 21.288 21.303z" fill="#FFCAB6"/><path d="M561.114 238.754s5.324-11.534 5.976-18.235c.654-6.702-7.34-.995-7.34-.995l-1.466 1.623 2.83 17.607z" fill="#54191F"/><path d="M577.683 256.749s7.414 2.792 14.83 1.107" stroke="#6C1C25" stroke-width="1.07" stroke-miterlimit="20"/><path d="M586.727 238.754l4.307 12.013-4.311-.002-4.312-.002 4.316-12.009z" fill="#FF9781"/><path d="M570.086 230.249s4.02-4.458 10.116-.565" stroke="#6C1C25" stroke-width=".86" stroke-miterlimit="20" stroke-linecap="round"/><path d="M572.242 236.279c0 2.131 1.322 3.86 2.954 3.86 1.633 0 2.96-1.726 2.96-3.857 0-2.133-1.322-3.863-2.955-3.863-1.632 0-2.96 1.727-2.96 3.86h.001z" fill="#6C1C25"/><path d="M575.104 236.367a1.041 1.041 0 00.722.922 1.032 1.032 0 00.804-.069 1.03 1.03 0 00.515-.622 1.042 1.042 0 00-1.792-.982 1.045 1.045 0 00-.249.751z" fill="#fff"/><path d="M601.328 230.812s-3.863-4.595-10.088-.917" stroke="#6C1C25" stroke-width=".86" stroke-miterlimit="20" stroke-linecap="round"/><path d="M598.963 236.762c-.072 2.13-1.453 3.813-3.086 3.756-1.633-.055-2.895-1.827-2.822-3.96.072-2.13 1.456-3.81 3.086-3.756 1.633.058 2.897 1.83 2.822 3.96z" fill="#6C1C25"/><path d="M595.917 236.747a1.04 1.04 0 001.127.951 1.04 1.04 0 00.839-1.518 1.048 1.048 0 00-.61-.515 1.042 1.042 0 00-1.356 1.082z" fill="#fff"/><path d="M563.421 232.486c1.172-1.336-1.593-1.067-2.93-2.237-.58-.508 1.34-3.057.628-3.084l-.003 3.644a7.946 7.946 0 00-7.95 7.942c0 3.89 2.798 7.116 6.492 7.803l5.035-5.752 3.57-4.074a3.22 3.22 0 00-4.842-4.242z" fill="#F8BAA6"/><path d="M626.145 628.782s7.365 6.112 12.092 9.45c4.346 3.066 13.159-.097 14.545 11.38.214 1.777-1.187 3.35-2.977 3.35h-39.3a2.985 2.985 0 01-2.205-.969 2.992 2.992 0 01-.777-2.279l1.804-20.933 16.818.001z" fill="#24264A"/><path d="M649.805 652.962h-39.3a2.985 2.985 0 01-2.205-.969 2.983 2.983 0 01-.777-2.28l.01-.102h45.25v.687a3.005 3.005 0 01-2.978 2.664zm-113.332-24.18s-7.367 6.112-12.091 9.45c-4.346 3.066-13.16-.097-14.546 11.38-.216 1.777 1.187 3.35 2.977 3.35h39.3a2.992 2.992 0 002.98-3.248l-1.804-20.933-16.816.001z" fill="#24264A"/><path d="M512.813 652.962h39.3a2.985 2.985 0 002.205-.969 2.984 2.984 0 00.775-2.28l-.007-.102h-45.25v.687a3.005 3.005 0 002.977 2.664z" fill="#24264A"/><path d="M544.896 221.002a3.216 3.216 0 01.3 4.54l-8.332 9.515a6.439 6.439 0 01-.6-9.082l4.092-4.672a3.208 3.208 0 013.453-.928c.4.136.769.349 1.087.628v-.001z" fill="#F8BAA6"/><path d="M520.648 291.475s-8.905 8.813-5.826 19.172c2.648 8.9 10.565 16.59 22.012 13.403 18.573-5.17 23.127-26.004 23.292-26.124.161-.117 3.805-5.934-2.086-7.99-5.891-2.055-13.97-3.748-13.97-3.748l-23.422 5.287z" fill="#7FAEF2"/><path d="M538.049 233.624l-19.235 63.949c-1.984 6.399 1.538 13.204 7.907 15.282 6.984 2.28 14.391-2.056 15.825-9.262l12.86-65.185-17.357-4.784z" fill="#FFCBB7"/><path d="M536.767 234.97l13.84 12.122a3.67 3.67 0 005.18-.344l7.57-8.644-19.365-16.957-7.569 8.644a3.662 3.662 0 00-.529 4.045c.213.432.51.818.873 1.135v-.001z" fill="#FFCBB7"/><path d="M566.624 229.49a3.219 3.219 0 01.302 4.54l-8.334 9.515-4.84-4.241 8.332-9.513a3.208 3.208 0 013.453-.929c.4.136.769.349 1.087.628z" fill="#FFCBB7"/><path d="M561.783 225.248a3.223 3.223 0 01.301 4.543l-8.333 9.513-4.84-4.24 8.332-9.514a3.219 3.219 0 014.54-.302z" fill="#FFCBB7"/><path d="M558.652 219.569a3.214 3.214 0 011.09 2.208 3.215 3.215 0 01-.789 2.332l-8.333 9.515-4.84-4.239 8.332-9.515a3.214 3.214 0 012.208-1.09 3.215 3.215 0 012.332.789z" fill="#FFCBB7"/><path d="M555.977 212.896a3.216 3.216 0 01.3 4.54l-8.332 9.515-4.841-4.239 8.333-9.515a3.214 3.214 0 012.208-1.09 3.215 3.215 0 012.332.789z" fill="#FFCBB7"/><path d="M561.121 221.147s26.045 7.698 47.037 4.114c20.994-3.584 5.266-30.637-4.446-33.574-7.153-2.16-.525 6.837-6.757 8.465-6.23 1.628-15.544-8.136-28.792-.732-13.247 7.405-7.042 21.727-7.042 21.727z" fill="#54191F"/><path d="M589.748 268.862l15.907 161.273 40.246-3.164-15.847-108.13-40.306-49.979z" fill="#7FAEF2"/><path d="M644.362 316.532L626.123 299.4l3.931 19.44L637 325l7.362-8.468zm-54.614-47.67l2.438 24.716 10.42-7.023-12.858-17.693z" fill="#659DE0"/><path d="M389.253 291.758s-9.65-5.075-6.991-18.48c2.656-13.406-10.628-24.07-7.552-37.598 3.077-13.528 16.582-25.734 38.54-18.74 0 0 53.973-6.257 44.53 38.982-4.73 22.667 2.937 32.882 11.33 41.004 8.39 8.118 19.299 26.02 11.745 40.565-7.552 14.543-47.689 22.816-61.953.56-14.264-22.257-29.649-46.293-29.649-46.293z" fill="#6C1C25"/><path d="M355.938 337.305l-32.264-18.504-6.54 12.697 31.674 20.85 7.13-15.043z" fill="#F8BAA6"/><path d="M325.178 319.615l-7.89 12.275a2.91 2.91 0 01-4.025.877l-7.666-4.929 11.038-17.173 7.666 4.925a2.91 2.91 0 01.877 4.025z" fill="#F8BAA6"/><path d="M301.214 321.989a2.546 2.546 0 00-.346 1.923 2.55 2.55 0 001.115 1.604l8.438 5.424 2.76-4.294-8.438-5.423a2.554 2.554 0 00-3.53.766h.001z" fill="#FFCAB6"/><path d="M303.974 317.696a2.546 2.546 0 00-.346 1.923 2.547 2.547 0 001.116 1.604l8.437 5.423 2.76-4.293-8.44-5.424a2.55 2.55 0 00-3.527.767z" fill="#FFCAB6"/><path d="M306.734 313.402a2.551 2.551 0 00.767 3.527l8.44 5.424 2.76-4.294-8.44-5.426a2.546 2.546 0 00-1.923-.346 2.547 2.547 0 00-1.604 1.116v-.001z" fill="#FFCAB6"/><path d="M309.495 309.107a2.554 2.554 0 00.766 3.526l8.44 5.426 2.76-4.296-8.44-5.423a2.555 2.555 0 00-3.526.767z" fill="#F8BAA6"/><path d="M384.091 420.522l.75 195.195h15.595l14.32-164.454 3.509-29.558s-36.123-3.132-34.174-1.183z" fill="#4658C6"/><path d="M384.84 615.717l-1.112 13.063h16.816l-.108-13.063H384.84z" fill="#FFCAB6"/><path d="M383.728 628.782s-7.365 6.112-12.091 9.45c-4.346 3.066-13.16-.097-14.546 11.38-.214 1.777 1.187 3.35 2.977 3.35h39.3a2.99 2.99 0 002.98-3.249l-1.805-20.932-16.815.001z" fill="#24264A"/><path d="M360.068 652.962h39.3a2.99 2.99 0 002.98-3.249l-.008-.102h-45.249v.687a3.007 3.007 0 002.977 2.663v.001z" fill="#24264A"/><path d="M411.014 418.389l17.896 197.328h16.3l.909-175.547s4.681-25.51-3.52-43.014c-5.488-11.718-33.533 19.284-31.585 21.233z" fill="#5A66D7"/><path d="M428.91 615.717l-1.111 13.063h16.816l.596-13.063H428.91z" fill="#FFCAB6"/><path d="M427.8 628.782s-7.367 6.112-12.091 9.45c-4.346 3.066-13.162-.097-14.548 11.38a3.002 3.002 0 002.976 3.35h39.304a2.992 2.992 0 002.979-3.249l-1.805-20.932-16.815.001z" fill="#24264A"/><path d="M404.137 652.962h39.304a2.992 2.992 0 002.979-3.249l-.01-.102h-45.25v.687a3.007 3.007 0 002.977 2.663v.001z" fill="#24264A"/><path d="M386.919 296.134s-13.194 40.137-19.708 41.74c-6.523 1.603-34.084-16.29-34.084-16.29l-10.05 16.083s28.58 20.699 38.31 22.165c20.626 3.106 46.31-31.775 42.68-56.535-2.376-5.222-17.148-7.163-17.148-7.163z" fill="#F18A7D"/><path d="M397.407 333.227c-2.026-.938-14.309 2.347-14.309 2.347s-2.392 11.559-13.306 16.776c-10.867 5.192-18.97 3.12-19.038 3.116 4.194 2.27 8.02 3.972 10.633 4.366 12.798 1.928 27.538-10.773 36.02-26.605z" fill="#FF4349"/><path d="M443.187 300.465c-.331-3.56 1.033-6.337-3.047-6.337l-26.223-4.192-21.542 4.192c-4.082 0-7.398 2.778-7.726 6.337-1.426 15.384-12.701 34.395-3.345 45.667 5.615 41.063 0 77.71 0 77.71s15.927.016 32.613.03l37.966-.03s-3.472-47.509-5.354-77.71c9.356-11.272-1.919-30.283-3.342-45.667z" fill="#FF4349"/><path d="M443.408 352.347c-3.158-4.557-18.072-21.651-22.965-27.607-4.891-5.954-16.709-8.46-16.709-8.46l48.15 107.563s-2.652-36.252-4.573-65.555c-1.745-2.725-3.159-4.866-3.903-5.94v-.001z" fill="#FF4349"/><path d="M413.917 297.926c-4.354 0-7.885-2.887-7.885-6.451v-12.627h15.77v12.627c0 3.564-3.53 6.451-7.885 6.451z" fill="#F8BAA6"/><path d="M429.251 255.059c-.742-11.402-17.83-10.954-28.874-10.638-11.044.313-13.79-5.844-13.79-5.844s-.253 18.015 4.07 32.232c2.626 8.637 10.207 14.588 18.453 15.38 17.065-.81 21.12-16.085 20.141-31.13z" fill="#FFCBB7"/><path d="M415.412 269.233s-4.435 5.61-13.256 2.922" stroke="#6C1C25" stroke-width=".98" stroke-miterlimit="20"/><path d="M406.346 253.673l-2.99 11.259 3.922-.335 3.922-.334-4.854-10.59z" fill="#FF9882"/><path d="M398.873 258.279c.165 1.94-.906 3.614-2.39 3.739-1.485.127-2.824-1.342-2.988-3.28-.165-1.94.903-3.615 2.39-3.742 1.485-.124 2.822 1.344 2.988 3.283z" fill="#6C1C25"/><path d="M399.418 251.218s-5.503-1.894-9.084 1.725m30.109-3.218s-4-3.746-9.244.266" stroke="#6C1C25" stroke-width=".78" stroke-miterlimit="20" stroke-linecap="round"/><path d="M419.126 255.554c.164 1.939-.906 3.614-2.39 3.74-1.485.128-2.824-1.34-2.989-3.28-.166-1.94.904-3.613 2.39-3.74 1.486-.127 2.822 1.341 2.989 3.28z" fill="#6C1C25"/><path d="M416.602 256.714a.934.934 0 01-.567.888.946.946 0 01-.363.074.947.947 0 01-.67-.284.934.934 0 01.022-1.316.928.928 0 011.295 0 .928.928 0 01.283.638z" fill="#fff"/><path d="M436.622 329.19l-23.17-29.095-10.761 9.392 21.758 31.058 12.173-11.355z" fill="#FFCAB6"/><path d="M414.549 301.406l-11.86 8.504a2.912 2.912 0 01-4.065-.67l-5.309-7.406 16.594-11.898 5.31 7.408a2.908 2.908 0 01.107 3.233 2.91 2.91 0 01-.777.829z" fill="#FFCAB6"/><path d="M409.205 289.752a2.553 2.553 0 00-.587 3.562l5.846 8.154a5.106 5.106 0 001.175-7.124l-2.872-4.004a2.556 2.556 0 00-3.562-.588zm-17.806 5.028a2.553 2.553 0 00-.587 3.562l5.846 8.151 4.147-2.974-5.844-8.152a2.538 2.538 0 00-1.659-1.032 2.556 2.556 0 00-1.903.445z" fill="#FFCAB6"/><path d="M395.548 291.806a2.538 2.538 0 00-1.032 1.659 2.564 2.564 0 00.445 1.902l5.844 8.152 4.149-2.975-5.847-8.15a2.54 2.54 0 00-1.658-1.031 2.54 2.54 0 00-1.901.443z" fill="#FFCAB6"/><path d="M399.695 288.832a2.55 2.55 0 00-.588 3.561l5.847 8.151 4.149-2.971-5.847-8.154a2.55 2.55 0 00-3.561-.588v.001z" fill="#FFCAB6"/><path d="M403.844 285.857a2.556 2.556 0 00-.588 3.562l5.847 8.154 4.146-2.975-5.844-8.153a2.55 2.55 0 00-3.561-.588z" fill="#FFCAB6"/><path d="M462.489 335.574c0-19.867-4.13-30.325-7.995-35.764-2.932-4.126-7.8-6.618-12.86-6.429-20.661.772 3.412 42.895 2.215 42.193-1.3-.762-23.394-32.035-23.394-32.035l-16.72 12.743s31.452 43.93 41.022 50.92c10.857 7.927 16.89-2.139 17.732-31.628zm84.323 135.076c-11.481-10.304-27.341-15.504-47.586-15.59-18.8-.08-34.07 4.464-45.812 13.631-11.743 9.167-17.515 22.43-17.318 39.781l.269.817 38.499.167c.12-7.681 2.519-13.503 7.19-17.46 4.672-3.956 10.35-5.92 17.04-5.892 8.134.035 14.381 2.412 18.744 7.128 4.363 4.72 6.529 11.238 6.491 19.551-.03 7.502-1.98 14.272-5.846 20.31-3.868 6.038-9.02 11.666-15.462 16.88-10.971 8.358-18.296 15.467-21.982 21.323-3.686 5.862-5.603 15.118-5.745 27.77l39.45.166c.033-7.499.914-13.393 2.651-17.679 1.732-4.286 5.366-8.54 10.9-12.766 10.15-6.55 18.612-14.697 25.387-24.429 6.772-9.732 10.185-20.335 10.234-31.811.075-17.625-5.625-31.59-17.104-41.897zm-32.038 184.707l-39.857-.171.146-33.89 39.857.17-.146 33.891z" fill="#F18A7D"/><path d="M471.715 491.995c-4.662 3.95-7.058 9.757-7.188 17.416l10.337.045c.12-7.681 2.519-13.503 7.19-17.46 3.438-2.91 7.425-4.735 11.955-5.489a35.816 35.816 0 00-5.254-.403c-6.69-.027-12.368 1.936-17.04 5.891zm75.097-21.345c-11.481-10.304-27.341-15.504-47.586-15.59-2.034-.008-4.005.062-5.954.161 18.14.782 32.573 5.889 43.201 15.43 11.48 10.306 17.179 24.269 17.104 41.896-.05 11.476-3.462 22.08-10.234 31.811-6.775 9.732-15.238 17.878-25.388 24.43-5.533 4.226-9.167 8.48-10.899 12.765-1.735 4.279-2.616 10.158-2.65 17.637l10.338.042c.033-7.499.914-13.393 2.651-17.679 1.733-4.286 5.366-8.54 10.9-12.766 10.15-6.55 18.612-14.697 25.387-24.429 6.772-9.732 10.185-20.335 10.234-31.811.075-17.627-5.625-31.59-17.104-41.897zm-71.75 150.646v.044l29.518.126-.144 33.847 10.339.045.143-33.892-39.856-.17z" fill="#FF4349"/><path d="M742.562 277.775c5.478-18.46 12.136-31.211 19.971-38.255 7.835-7.039 21.52-14.396 41.063-22.062 11.599-4.953 21.482-11.046 29.658-18.274 8.174-7.228 13.849-16.328 17.02-27.296 3.512-12.157 3.056-22.598-1.364-31.322-4.423-8.72-12.58-14.806-24.471-18.244-9.782-2.825-18.912-2.312-27.397 1.534-8.49 3.847-14.42 11.37-17.798 22.562l-56.29-16.273-.053-1.304c6.937-25.485 20.908-42.497 41.92-51.026 21.006-8.532 45.251-8.826 72.737-.881 29.599 8.557 50.655 22.771 63.17 42.636 12.512 19.866 15.043 42.685 7.591 68.456-4.848 16.778-14.26 30.88-28.227 42.307-13.97 11.425-29.75 19.825-47.335 25.191-9.86 3.883-16.953 8.597-21.271 14.147-4.328 5.553-8.074 13.814-11.243 24.778l-57.681-16.674zm34.357 98.847l-58.276-16.848 14.324-49.55 58.274 16.845-14.322 49.553z" fill="#F18A7D"/><path d="M900.728 119.57c-12.515-19.865-33.571-34.08-63.17-42.636a161.56 161.56 0 00-11.225-2.81c25.748 8.708 44.37 22.139 55.82 40.313 12.512 19.867 15.043 42.684 7.593 68.454-4.85 16.78-14.261 30.883-28.23 42.31-13.97 11.424-29.75 19.822-47.334 25.188-9.86 3.886-16.953 8.597-21.271 14.148-4.299 5.515-8.022 13.709-11.178 24.56l18.51 5.352c3.169-10.966 6.915-19.225 11.243-24.778 4.318-5.55 11.412-10.264 21.27-14.147 17.585-5.366 33.365-13.766 47.336-25.19 13.968-11.427 23.379-25.53 28.227-42.31 7.452-25.769 4.92-48.588-7.591-68.454zm-122.261-.847c-8.432 3.82-14.336 11.275-17.723 22.346l18.5 5.349c3.377-11.193 9.309-18.715 17.798-22.562 5.628-2.552 11.544-3.602 17.742-3.219a53.246 53.246 0 00-8.92-3.447c-9.782-2.825-18.912-2.312-27.397 1.533zm-5.801 203.212l-14.26 49.336 18.513 5.351 14.322-49.553-18.575-5.134z" fill="#FF4349"/><path d="M226.774 153.653c-2.494-10.2-11.668-17.778-22.635-17.778-10.966 0-20.14 7.579-22.634 17.778h45.269zm121.835 0c-.685-18.542-15.922-33.367-34.632-33.367-18.71 0-33.947 14.825-34.631 33.367h69.263z" fill="#DEE6FF"/><path d="M290.048 153.653a41.267 41.267 0 007.455-23.707c0-22.898-18.565-41.464-41.466-41.464s-41.466 18.566-41.466 41.464a41.266 41.266 0 007.452 23.707h68.025zm695.682 32.586c2.495-10.2 11.666-17.779 22.63-17.779 10.97 0 20.15 7.58 22.64 17.779h-45.27zm-121.834 0c.685-18.543 15.922-33.367 34.632-33.367 18.709 0 33.946 14.824 34.63 33.367h-69.262z" fill="#DEE6FF"/><path d="M922.456 186.239a41.267 41.267 0 01-7.454-23.705c0-22.9 18.565-41.466 41.466-41.466s41.466 18.565 41.466 41.466c0 8.816-2.76 16.985-7.452 23.705h-68.026zM535.405 94.882c3.63-14.85 16.985-25.883 32.954-25.883 15.967 0 29.323 11.033 32.952 25.883h-65.906zm-177.378 0c.995-26.996 23.182-48.578 50.419-48.578 27.24 0 49.426 21.582 50.421 48.578h-100.84z" fill="#DEE6FF"/><path d="M443.284 94.882a60.055 60.055 0 01-10.852-34.512c0-33.343 27.03-60.37 60.37-60.37 33.342 0 60.37 27.027 60.37 60.37a60.062 60.062 0 01-10.852 34.512h-99.036z" fill="#DEE6FF"/><path d="M283.256 354.502l-7.698 17.095a3.739 3.739 0 001.876 4.946l10.673 4.806 10.767-23.914-10.675-4.806a3.74 3.74 0 00-4.943 1.874v-.001z" fill="#FFCAB6"/><path d="M299.285 358.273a3.284 3.284 0 01-4.336 1.643l-11.75-5.291a6.56 6.56 0 018.671-3.286l5.77 2.599a3.278 3.278 0 011.645 4.335z" fill="#FFCAB6"/><path d="M176.216 211.26s3.825 22.458-14.232 27.494c-16.203 4.517-9.72-22.668-9.72-22.668s10.7-4.928 13.27-4.823c2.568.104 10.682-.003 10.682-.003z" fill="#54191F"/><path d="M192.347 420.522l4.27 195.195h-27.42l-21.375-157.323v-36.69s46.474-3.13 44.525-1.182z" fill="#4658C6"/><path d="M104.967 418.855l-5.941 196.862h27.423l21.373-157.323v-36.69s-44.804-4.798-42.855-2.85v.001z" fill="#5A66D7"/><path d="M114.435 418.678l-8.542 9.351 35.4 32.332 27.49-30.102-10.105-9.229c-6.25.364-10.856.675-10.856.675s-20.743-2.223-33.387-3.027z" fill="#4658C6"/><path d="M111.973 273.052l37.685-6.972 37.686 6.971c5.844.991 9.274 4.612 9.274 10.785v131.952c0 4.458-4.152 8.07-9.274 8.07h-75.371c-5.125 0-9.276-3.612-9.276-8.07V283.836c0-6.173 3.432-9.794 9.276-10.785v.001z" fill="#7FAEF2"/><path d="M196.618 404.045v-44.723c-7.169.112-13.047.777-17.54 2.036-8.017 2.253-17.199 8.956-27.54 20.121l35.04 32c3.529-3.865 6.874-6.996 10.04-9.433v-.001z" fill="#659DE0"/><path d="M124.425 405.173a3.269 3.269 0 01-3.501 1.008 3.282 3.282 0 01-1.119-.62l-9.843-8.313a6.553 6.553 0 019.239-.779l4.836 4.084a3.278 3.278 0 01.388 4.62z" fill="#F8BAA6"/><path d="M236.79 335.862l35.778 14.678-9.092 15.932-37.894-12.397-44.555-53.025c-4.983-6.248-1.942-15.556 5.772-17.652 4.388-1.192 9.06.41 11.792 4.045l38.199 48.419z" fill="#FFCAB6"/><path d="M225.582 315.388l-23.549 18.705-36.5-45.637 16.484-12.638 12.24.79 31.325 38.78z" fill="#7FAEF2"/><path d="M148.292 279.482a8.022 8.022 0 008.022-8.021v-6.446a4.117 4.117 0 00-4.117-4.117h-7.81a4.117 4.117 0 00-4.117 4.117v6.446c0 2.128.845 4.168 2.35 5.672a8.018 8.018 0 005.672 2.35v-.001z" fill="#F8BAA6"/><path d="M191.598 615.717l1.112 13.063h-16.816l-1.816-13.063h17.52zm-87.448 0l-1.112 13.063h16.816l1.816-13.063h-17.52z" fill="#FFCAB6"/><path d="M134.73 199.42l35.542 35.254-46.553-2.807c-17.042-34.072 11.01-32.447 11.01-32.447h.001z" fill="#54191F"/><path d="M119.734 238.751a7.952 7.952 0 004.902 7.346 7.95 7.95 0 0010.839-5.789 7.95 7.95 0 00-3.378-8.159 7.944 7.944 0 00-7.457-.737 7.94 7.94 0 00-4.906 7.339z" fill="#FFCAB6"/><path d="M123.599 238.754a4.083 4.083 0 004.079 4.017c1.071 0 2.099-.42 2.862-1.172a4.076 4.076 0 001.218-2.843 4.078 4.078 0 00-5.64-3.77 4.064 4.064 0 00-1.323.884 4.067 4.067 0 00-1.196 2.884z" fill="#FF9781"/><path d="M148.962 270.189c11.762.005 21.3-9.525 21.305-21.286l.01-31.072-42.591-.015-.01 31.07c-.005 11.76 9.525 21.298 21.286 21.303z" fill="#FFCAB6"/><path d="M143.802 252.659s6.287 7.987 14.827 1.105" stroke="#6C1C25" stroke-width="1.07" stroke-miterlimit="20"/><path d="M152.608 236.419l4.307 12.012-4.312-.002-4.311-.001 4.316-12.009z" fill="#FF9781"/><path d="M136.763 230.249s4.02-4.458 10.115-.565" stroke="#6C1C25" stroke-width=".86" stroke-miterlimit="20" stroke-linecap="round"/><path d="M138.919 236.279c0 2.131 1.321 3.86 2.954 3.86 1.633 0 2.957-1.726 2.96-3.857 0-2.133-1.322-3.863-2.957-3.863-1.633 0-2.957 1.727-2.957 3.86z" fill="#6C1C25"/><path d="M141.878 237.602a1.044 1.044 0 002.08-.178 1.042 1.042 0 00-1.129-.951 1.04 1.04 0 00-.951 1.128v.001z" fill="#fff"/><path d="M167.895 230.812s-3.863-4.595-10.09-.917" stroke="#6C1C25" stroke-width=".86" stroke-miterlimit="20" stroke-linecap="round"/><path d="M165.53 236.762c-.074 2.13-1.455 3.813-3.088 3.756-1.63-.055-2.895-1.827-2.823-3.96.075-2.13 1.456-3.81 3.09-3.756 1.63.058 2.894 1.83 2.822 3.96h-.001z" fill="#6C1C25"/><path d="M162.579 237.982a1.038 1.038 0 001.128.95 1.04 1.04 0 00.838-1.518 1.063 1.063 0 00-.254-.319 1.047 1.047 0 00-1.712.887z" fill="#fff"/><path d="M138.214 209.426c-12.23-1.946-9.572 1.628-10.538 2.462-.968.833.01 5.928.01 5.928 24.063 10.374 42.591.015 42.591.015s13.309-6.934 12.089-20.728c-1.434-16.223-39.231-1.518-47.636 2.317-8.408 3.836 3.484 10.006 3.484 10.006z" fill="#54191F"/><path d="M192.71 628.782s7.365 6.112 12.091 9.45c4.346 3.066 13.16-.097 14.546 11.38.214 1.777-1.187 3.35-2.977 3.35h-39.3a3.001 3.001 0 01-2.205-.968 2.988 2.988 0 01-.775-2.28l1.805-20.933 16.815.001z" fill="#24264A"/><path d="M216.37 652.962h-39.3a2.983 2.983 0 01-2.832-2.027 2.983 2.983 0 01-.148-1.222l.008-.102h45.249v.687a3.005 3.005 0 01-2.977 2.664zm-113.332-24.18s-7.365 6.112-12.092 9.45c-4.345 3.066-13.159-.097-14.545 11.38-.214 1.777 1.187 3.35 2.977 3.35h39.3a2.99 2.99 0 002.98-3.248l-1.805-20.933-16.815.001z" fill="#24264A"/><path d="M79.378 652.962h39.3a2.99 2.99 0 002.98-3.249l-.008-.102H76.4v.687a3.005 3.005 0 002.978 2.664z" fill="#24264A"/><path d="M151.538 368.058c10.341-11.166 19.523-17.871 27.54-20.121 8.014-2.248 20.288-2.67 36.82-1.265 9.95.55 19.087-.308 27.41-2.568 8.323-2.265 15.526-6.725 21.612-13.388 6.745-7.385 10.075-14.944 9.995-22.672-.082-7.728-3.733-14.894-10.956-21.492-5.944-5.426-12.592-8.256-19.951-8.503-7.363-.244-14.197 3.01-20.507 9.76l-34.193-31.23.42-.943c13.831-15.63 29.686-22.796 47.56-21.487 17.87 1.304 35.153 9.582 51.852 24.83 17.98 16.422 27.926 33.862 29.843 52.318 1.914 18.458-4.279 35.512-18.576 51.165-9.308 10.195-20.912 16.895-34.81 20.104-13.899 3.208-28.018 3.636-42.357 1.284-8.346-.697-15.021.162-20.024 2.581-5.01 2.422-10.556 6.964-16.639 13.627l-35.039-32zm-10.245 82.066l-35.4-32.332 27.49-30.099 35.4 32.33-27.49 30.101z" fill="#F18A7D"/><path d="M254.078 277.549c-5.944-5.424-12.592-8.256-19.952-8.5-7.357-.244-14.187 3.004-20.494 9.747l9.869 9.012c6.31-6.75 13.144-10.003 20.507-9.759 5.33.18 10.281 1.733 14.869 4.627-1.372-1.745-2.97-3.455-4.8-5.127h.001zM141.293 450.124l-9.87-9.014 27.485-30.096 9.87 9.013-27.485 30.097zm177.69-138.827c-1.917-18.456-11.863-35.896-29.843-52.318a131.651 131.651 0 00-5.16-4.455c14.991 15.085 23.382 31.007 25.121 47.773 1.914 18.455-4.278 35.51-18.575 51.165-9.308 10.193-20.912 16.893-34.81 20.104-13.896 3.205-28.019 3.634-42.358 1.284-8.345-.7-15.02.16-20.023 2.581-5.008 2.42-10.548 6.957-16.626 13.612l9.868 9.015c6.083-6.663 11.629-11.205 16.639-13.627 5.003-2.42 11.678-3.278 20.024-2.581 14.339 2.352 28.458 1.924 42.357-1.284 13.898-3.209 25.502-9.909 34.81-20.104 14.297-15.653 20.49-32.707 18.576-51.165z" fill="#FF4349"/><path d="M77.312 357.892l37.09 42.184-15.424 13.522-45.028-49.072c-3.972-5.307-1.217-12.024 2.392-16.883l38.636-52.34c4.896-6.317 14.66-5.553 18.513 1.446a11.112 11.112 0 01-1.147 12.415l-35.032 48.728z" fill="#FFCAB6"/><path d="M94.713 340.132l-25.02-19.815 35.438-43.803 14.602 13.802-5.99 24.04-19.03 25.776z" fill="#7FAEF2"/><path d="M110.05 397.146l-12.097 14.322a3.742 3.742 0 00.443 5.269l8.945 7.554 16.92-20.036-8.943-7.554a3.74 3.74 0 00-5.269.445h.001z" fill="#FFCAB6"/><path d="M116.177 427.462a3.278 3.278 0 01-4.62.39l-9.846-8.315 4.231-5.008 9.844 8.313a3.28 3.28 0 01.391 4.62z" fill="#FFCAB6"/><path d="M120.406 422.454a3.287 3.287 0 01-3.501 1.008 3.282 3.282 0 01-1.119-.62l-9.844-8.313 4.232-5.01 9.843 8.315a3.281 3.281 0 011.009 3.501c-.131.41-.342.79-.62 1.119z" fill="#FFCAB6"/><path d="M124.637 417.444a3.282 3.282 0 01-4.62.39l-9.843-8.315 4.228-5.008 9.847 8.313a3.278 3.278 0 01.388 4.62z" fill="#FFCAB6"/><path d="M128.868 412.436a3.287 3.287 0 01-3.501 1.008 3.282 3.282 0 01-1.119-.62l-9.846-8.313 4.232-5.01 9.843 8.315a3.281 3.281 0 01.391 4.62zm168.607-30.465a3.281 3.281 0 01-4.335 1.643l-8.761-3.945a3.278 3.278 0 012.693-5.979l8.76 3.945a3.273 3.273 0 011.931 3.089 3.275 3.275 0 01-.288 1.247z" fill="#FFCAB6"/><path d="M300.166 375.992a3.28 3.28 0 01-1.826 1.72 3.287 3.287 0 01-2.507-.077l-8.761-3.945a3.28 3.28 0 01-1.72-1.826 3.287 3.287 0 01.077-2.507 3.28 3.28 0 013.087-1.932c.43.013.853.11 1.246.287l8.761 3.945a3.282 3.282 0 011.643 4.335z" fill="#FFCAB6"/><path d="M302.86 370.014a3.278 3.278 0 01-4.337 1.643l-8.76-3.945a3.281 3.281 0 012.693-5.979l8.758 3.945a3.278 3.278 0 011.645 4.336h.001z" fill="#FFCAB6"/><path d="M305.55 364.035a3.273 3.273 0 01-3.089 1.931 3.275 3.275 0 01-1.247-.288l-8.759-3.945a3.254 3.254 0 01-1.042-.742 3.27 3.27 0 01-.603-3.591 3.278 3.278 0 011.828-1.719 3.279 3.279 0 012.508.074l8.76 3.945a3.284 3.284 0 011.644 4.335z" fill="#FFCAB6"/><path d="M94.713 340.132l7.984-10.813v-20.997l-21.035 21.473 13.051 10.337zm107.32-6.04l6.8-5.4-12.214-14.215v12.847l5.414 6.768z" fill="#659DE0"/><path d="M315.916 310.752a2.55 2.55 0 00.767 3.527l8.437 5.423a5.092 5.092 0 00.695-3.845 5.102 5.102 0 00-2.228-3.209l-4.144-2.663a2.555 2.555 0 00-3.527.767zm417.14 26.56a3.277 3.277 0 01-3.945 2.436l-12.54-2.962a6.57 6.57 0 015.331-4.967 6.553 6.553 0 012.557.091l6.16 1.457a3.28 3.28 0 012.437 3.944v.001z" fill="#FFCAB6"/></svg>