<svg xmlns="http://www.w3.org/2000/svg" width="138" height="138"><path fill="#1d1d1b" d="M72.988 104.258V92.752h-8.465v11.506c-16.34-1.937-29.333-14.928-31.27-31.27H44.76v-8.465H33.253c1.937-16.34 14.93-29.332 31.27-31.27V44.76h8.465V33.254c16.34 1.937 29.332 14.928 31.27 31.27H92.751v8.465h11.505c-1.937 16.34-14.928 29.332-31.27 31.27zm64.556-39.735h-24.77C110.77 43.51 94.003 26.741 72.989 24.736V-.034h-8.465v24.77C43.509 26.741 26.742 43.51 24.737 64.523H-.033v8.466h24.77c2.005 21.013 18.772 37.782 39.786 39.787v24.77h8.465v-24.77c21.014-2.005 37.782-18.774 39.787-39.787h24.77z" opacity="-1"/></svg>