<svg width="115" height="67" fill="none" xmlns="http://www.w3.org/2000/svg"><path d="M35.365 38.14s1.064.34 1.27.348c0 0-.893-.68-1.018-.975 0 0-.06.524-.252.628v-.001zm-.066 1.833s.583.369 1.056.524c0 0-.583-.894-.635-1.352 0-.007-.362.51-.421.828zm.495-9.559c.14.488.59.754.59.754.008-.185 1.013-.761 1.013-.761-.628-.303-1.603.007-1.603.007zm1.662 28.276s-.495-.96-1.544-1.041c0 0 .872 1.204.835 1.5 0-.008.487-.008.709-.458v-.001zm35.486-45.524c-.155-.251-.673-.258-.673-.258-.177.583-.036 1.174-.036 1.174.221-.214.709-.916.709-.916zm2.008-2.282s-1.011-.274-1.447.34a42.944 42.944 0 01-1.034 1.388l.753.288c0-.007 1.374-1.403 1.729-2.016h-.001zM35.668 36.25s.62.502 1.034.495c0 0-.635-.85-.672-1.057 0 .008-.377.355-.362.562zm6.774-23.638s-.598-.768-1.034-1.389c-.436-.62-1.448-.34-1.448-.34.347.614 1.728 2.017 1.728 2.017l.754-.288zm-.48.554s.487.71.709.916c0 0 .14-.598-.044-1.174.007-.008-.51.007-.665.258zm-.975-.724s-.894-.694-1.463-1.514c-.569-.827-1.544-.14-1.544-.14.702.458 2.386 2.127 2.386 2.127.347 0 .62-.473.62-.473h.001zm-1.057.672s-.583.296-.598.606c0 0 .606.598.805.687 0 .007 0-.827-.207-1.293zm-3.257 2.083s-.79 1.234.871 1.264zm4.69-2.201s-.487.096-.701.288c0 0 .576.71.768.887.007.007.081-.562-.067-1.175zm-3.767 47.349c.17-.34.133-1.07.133-1.07-.288.265-.812.287-.812.287.25.104.68.783.68.783h-.001zM75.35 12.472s.975.798.657 1.462c0 0 1.47.318 1.84-.613 0 0 .25.562-.052.946 0 0 .266.221.495.184.229-.037.243.362.192.54 0 0 .524.236.458.783 0 0 .834-.577.783-1.293a1.866 1.866 0 00-.473-1.13s.99.48.968 1.425c-.023.946-.946 1.44-.946 1.44s1.13 1.131 1.692 1.515c0 0-1.382-.266-2.335-1.086 0 0 .163 2.8-.413 3.48 0 0 .458.007.68-.23.22-.236.864-.635.664.06-.2.694-.975 1.44-.975 1.44s1.278-.222 1.743-.783c.466-.561.931-.355.451.443-.32.505-.696.971-1.123 1.389 0 0 1.337-.192 1.78-.613.444-.421.451-.015.466.354 0 0 .458-1.824 1.086-2.622 0 0-.562-.377-.902-1.056 0 0 .88.539 1.286.554 0 0 1.049-1.071 1.861-1.448 0 0-1.455-.635-2.068-1.67 0 0-.081.835.214 1.168 0 0-1.418-1.182-1.492-2.408-.074-1.234.007-1.345.007-1.345l-3.095-2.23s-.857-.769-1.33-.296c-.472.487-1.846 1.197-2.12 1.64h.001z" fill="#005141"/><path d="M31.54 19.076c.398-.015 1.284-.554 1.284-.554-.34.672-.9 1.056-.9 1.056.627.798 1.085 2.622 1.085 2.622.015-.37.022-.776.465-.354.444.42 1.78.613 1.78.613s-.635-.599-1.122-1.39c-.488-.79-.022-1.004.45-.442.466.561 1.744.783 1.744.783s-.776-.746-.975-1.44c-.2-.695.443-.296.664-.06.222.237.68.23.68.23-.584-.695-.421-3.495-.421-3.495-.946.82-2.334 1.086-2.334 1.086.561-.377 1.691-1.514 1.691-1.514s-.923-.495-.945-1.44c-.022-.946.967-1.426.967-1.426s-.413.413-.472 1.13c-.06.716.783 1.293.783 1.293-.067-.547.458-.783.458-.783-.052-.178-.037-.576.192-.54.229.037.495-.184.495-.184-.303-.384-.052-.946-.052-.946.362.931 1.84.613 1.84.613-.318-.672.657-1.462.657-1.462-.274-.443-1.648-1.153-2.113-1.625-.473-.473-1.33.295-1.33.295l-3.095 2.231s.082.118.008 1.344c-.074 1.227-1.492 2.408-1.492 2.408.295-.332.214-1.167.214-1.167-.613 1.034-2.068 1.67-2.068 1.67.812.376 1.861 1.448 1.861 1.448h.001zM93.026 7.375c1.485-.525 2.962-.377 2.002 2.371-.968 2.748-4.44 1.773-4.44 1.773-.059 1.529 1.094 1.677 1.094 1.677-.429-.288-.31-1.212-.31-1.212 1.588.628 4.75-.598 5.34-2.223.591-1.625-.185-2.97-.185-2.97 1.773.318 2.586-.406 2.586-.406-.347-.066-.82-.465-.82-.465.908-.111 2.15-.768 2.15-.768-.34.014-.665-.436-.665-.436.797-.104 1.987-.916 1.987-.916-1.1.155-3.014-.842-3.014-.842-.887 2.71-4.247 2.718-4.247 2.718-1.692 1.817-2.926-.54-2.926-.54s-1.573-.132-2.186.85c-.613.975.37.71.665.318.288-.392 1.278-.62 1.278-.62s-.88.952-1.33 1.233c-.45.288-.827.295-.827.295-.118.843.834 1.958.834 1.958s2.578-1.647 3.014-1.795zM78.991 57.642c-1.049.088-1.543 1.041-1.543 1.041.221.45.701.458.701.458-.03-.295.842-1.5.842-1.5v.001zm-1.684 2.703s.436-.68.68-.783c0 0-.525-.03-.813-.288 0 0-.044.731.133 1.071z" fill="#005141"/><path d="M94.134 5.344s-.775-.111-1.78-.104zM98.721 2.5C98.618 1.813 97.57.402 97.57.402c-.192.923-1.049 1.603-1.049 1.603.635 1.425 2.201.495 2.201.495h-.001zm-5.222 2.26c1.19.067 3.257.185 4.159-1.152 0 0-1.411-.022-1.64-1.005 0 0-.613.901-1.61.975-.99.074-2.084.458-2.741 1.285.007 0 .65-.177 1.832-.103zM78.238 15.197c-.414.362-.872 1.264-.872 1.264zm-3.265-2.083c-.214.466-.207 1.3-.207 1.3.2-.096.805-.686.805-.686-.014-.318-.598-.614-.598-.614zm-1.507 1.064c.192-.177.768-.886.768-.886-.206-.192-.701-.288-.701-.288-.14.605-.067 1.174-.067 1.174zm.451-1.736s.273.48.62.466c0 0 1.684-1.67 2.386-2.128 0 0-.968-.68-1.544.14-.568.828-1.462 1.522-1.462 1.522zm4.956 23.254c-.037.206-.672 1.056-.672 1.056.414.007 1.034-.495 1.034-.495.015-.214-.362-.561-.362-.561zm.414 1.817c-.126.303-1.02.975-1.02.975.207-.008 1.271-.347 1.271-.347-.185-.104-.251-.628-.251-.628zm-.104 1.625c-.051.458-.635 1.352-.635 1.352.473-.155 1.056-.525 1.056-.525-.059-.31-.42-.827-.42-.827h-.001zm-.073-8.724s-.975-.31-1.603-.007c0 0 1.004.583 1.012.76 0 0 .443-.265.59-.753h.001zM99.615 64.15c.044 1.144.731 1.233.731 1.233-.125-.222.045-1.219.045-1.219-.28-.17-.776-.015-.776-.015v.001zm-18.193-4.012c-.577-.088-1.035.643-1.035.643-.125.495.266 1.795.266 1.795 1.101-.414 1.345-2.342.769-2.438zm3.782.695c.65.435.76 1.174.76 1.174 1.02-.982.008-2.06.008-2.06-.28.117-.768.886-.768.886zm-6.434-1.079c-.562.222-.347 1.389-.347 1.389zm-42.636 0c-.562-.221-.57 1.44.347 1.389zm-1.618 1.027s-.458-.731-1.034-.643c-.576.096-.333 2.024.768 2.438 0 0 .391-1.3.266-1.795z" fill="#005141"/><path d="M79.774 61.29s-.96.134-1.5.658c-.302-.155-.568-.473-.657-1.005H37.345c-.089.532-.355.857-.657 1.005-.532-.524-1.5-.657-1.5-.657s.074 1.056-.702 2.097v1.22h45.99v-1.22c-.775-1.041-.702-2.097-.702-2.097v-.001zm19.871 1.899c.325.103.916.54.916.54-.023-.621.938-1.847.938-1.847-1.485.147-1.854 1.307-1.854 1.307zm4.823 1.418c-.583-.295-.812.4-.812.4.03.272.472 1.543.472 1.543.4-.295.924-1.64.34-1.943zm4.211-.657c.17.155.288 1.64.288 1.64s1.049-.798.724-1.492c-.318-.702-1.012-.148-1.012-.148zM84.495 34.056c-.658.14-2.032.812-2.032.812 1.197 1.854.163 3.642.163 3.642 3.36-1.3 1.868-4.454 1.868-4.454h.001zm11.634 9.632c-1.707-5.776-4.078-3.974-4.078-3.974zm6.041 20.852c-.516-.39-.915-.058-.915-.058-.096 1.152.975 1.5.975 1.5-.14-.547.458-1.05-.06-1.441v-.001zm-88.765-2.658s.96 1.226.938 1.846c0 0 .59-.436.916-.539 0 0-.37-1.16-1.854-1.307zm-2.962 2.725c-.584.296-.06 1.648.34 1.936 0 0 .435-1.27.472-1.544-.007.007-.229-.687-.812-.392zm-5.23-.517c-.325.702.724 1.492.724 1.492s.125-1.484.295-1.64c-.007.008-.694-.546-1.02.148h.001zm7.519.45c-.517.392.082.895-.051 1.441 0 0 1.07-.347.975-1.5 0 0-.406-.34-.924.06v-.001zm1.744-59.396s1.233.658 2.15.768c0 0-.473.4-.82.466 0 0 .812.716 2.585.406 0 0-.776 1.344-.185 2.97.591 1.625 3.752 2.85 5.34 2.223 0 0 .119.923-.31 1.211 0 0 1.153-.147 1.094-1.677 0 0-3.48.976-4.44-1.772-.967-2.748.51-2.896 2.002-2.371.436.155 3.029 1.795 3.029 1.795s.96-1.108.834-1.958c0 0-.384-.015-.827-.295-.45-.281-1.33-1.234-1.33-1.234s.983.229 1.278.62c.288.392 1.278.658.665-.317-.613-.975-2.186-.85-2.186-.85s-1.234 2.357-2.926.54c0 0-3.36-.015-4.247-2.719 0 0-1.913.998-3.014.842 0 0 1.19.813 1.987.916-.014 0-.34.45-.68.436h.001z" fill="#005141"/><path d="M22.55 5.24a13.296 13.296 0 00-1.78.104zm6.382 54.699s-1.012 1.078.007 2.06c0 0 .11-.738.76-1.174 0 .008-.487-.76-.767-.886zM18.376 2.005s-.85-.68-1.049-1.603c0 0-1.049 1.41-1.152 2.098.007 0 1.573.93 2.2-.495h.001zm-3.863 62.166s.17.99.044 1.22c0 0 .687-.09.731-1.234.008-.008-.495-.163-.775.014zm15.896-30.115s-1.492 3.154 1.869 4.447c0 0-1.034-1.78.162-3.642 0 .007-1.366-.665-2.031-.805zm-11.546 9.617s1.81-3.169 4.078-3.974zm16-5.547s.45-.325.465-.783c0 0-.753-.672-1.093-1.463 0 0 .104.872.008 1.1-.104.223-.015 1.05.62 1.146zM21.404 4.76c1.19-.074 1.832.103 1.832.103-.657-.827-1.75-1.211-2.74-1.285-.99-.074-1.61-.975-1.61-.975-.23.983-1.64 1.005-1.64 1.005.9 1.33 2.97 1.219 4.158 1.152zm58.171 32.575c.015.458.465.783.465.783.636-.088.724-.923.62-1.144-.103-.23.008-1.101.008-1.101-.34.798-1.093 1.463-1.093 1.463v-.001zM13.42 13.986c.029.022.059.037.088.052z" fill="#005141"/><path d="M28.318 33.428s-.849 2.534-3.464 3.649c0 0 1.551-.953 2.187-2.6 0 0-.931.443-2.128.399-1.19-.045-1.728-.296-.93-1.411 0 0 .236-.887-.274-.628-.517.258-1.352.015-1.352.015s.51-.14.82-.495c0 0-.221-.126-.465-.429 0 0 .694-.229.953-.42 0 0-1.448-1.153-1.795-2.158 0 0 .51-.229.85-.583 0 0-.43-1.02-1.367-1.426-.222 3.915-2.645 4.233-2.645 4.233s1.086-.347 1.581-1.987c.598-1.98-.015-2.608.872-4.839 0 0-.953-1.351-1.256-2.481 0 0 2.135 3.405 4.868 4.594 0 0 1.196-.554.864-1.684-.332-1.13-.857-2.379-.576-2.947 0 0 .207.524.672 1.255.458.732 1.514 3.206-1.071 4.144 0 0-1.765-.982-2.836-2.341 0 0-.436.871-.451 1.359 0 0 1.507 1.004 2.12 2.26 0 0-.569.554-.946.68 0 0 .695 1.374 1.618 1.869 0 0-.133.45-.458.73 0 0 .288.673 1.337-.494 0 0-.258.79-.583 1.123-.325.332-.192.539.48.162.672-.376 1.322-.834 1.322-.834s-.724.975-1.367 1.38c-.642.407-.952.85-.517.873.414.014 2.66.073 3.56-1.404.03-.044.067-.089.082-.148 1.108 0 2.06.68 2.06.68s-.945-.11-1.765-.096zm-7.541-19.604c-3.236-.31-4.47-3.99-4.47-3.99l4.47 3.99zm-3.34 5.48c-3.05-1.108-3.368-2.836-3.368-2.836l3.368 2.836zm4.728-.849c.924.798 2.268 1.61 2.268 1.61s-1.92-.642-2.992-1.72c-1.063-1.072-2.267-1.611-2.267-1.611.724.11 2.068.923 2.991 1.721zm-8.746-4.462c-.487-.325-2.77-2.083-.598-6.086l.598 6.086zm22.825 19.554c-.096-.466-.214-1.5.222-1.862 0 0-1.197-.695-.982-1.256 0 0-2.357.598-4.61-1.36-2.253-1.957-2.592-3.19-2.592-3.19s3.183 4.668 6.95 4.048c0 0 1.05-1.566.421-3-.635-1.432-4.912-3.397-5.643-5.296 0 0 2.142 1.95 3.235 2.342 0 0-.288-.392-1.063-2.253-.769-1.861-1.522-3.265-3.516-3.989-1.995-.724-2.822-2.208-2.822-2.208s1.588 1.47 2.77 1.44c0 0-.236-1.884-2.896-2.246-2.659-.369-4.646-.288-5.333-2.415 0 0-3.472-.414-2.999-4.831 0 0-1.994.473-4.21-2.97 0 0-1.648 1.057-2.187 2.527-.539 1.47-1.662 3.863-2.807 4.624 0 0 .887-.022 1.588-.399 0 0-3.154 2.63-1.1 8.975 0 0 .258-1.788.59-2.201 0 0-.398 5.17.414 7.26 0 0 .902-1.942 1.448-2.725 0 0-.022 4.3.687 5.983 0 0 1.175-2.991 1.677-3.457 0 0 .125 3.502.694 5.784 0 0 .931-2.6 2.054-3.53 0 0 2.386 1.321 2.09 4.579-.295 3.258-4.705 4.69-4.705 4.69s2.341-1.285 3.08-2.747c.746-1.463.62-3.22-.221-5.2 0 0 .435 4.638-3.347 7.778-3.782 3.14-4.018 6.264-4.092 7.253-.074.99-1.972 2.711-3.523 1.241-1.552-1.47-.835-4.158 2.179-6.064 3.013-1.913 4.572-3.723 4.454-6.781-.11-3.058-4.713-5.644-4.964-10.23 0 0-2.209 2.777-.03 4.808 2.18 2.031 4.255 3.716 4.38 4.484 0 0-1.196-1.736-2.858-2.512-1.662-.775-2.031-.76-2.031-.76s-.081 1.314.657 1.602c.731.289 3.14.289 3.937 1.87 0 0-1.012-1.33-3.442-1.36 0 0-.007 1.633 1.559 1.293 1.558-.34 1.787.495 1.787.495s-1.285-.79-2.186.207c-.894.997.399 1.676.827.915.429-.76 1.345-.805 1.145.045-.207.85-.613 2.526-4.04 4.49-3.428 1.966-3.945 5.01-3.967 5.726-.03.716-.576 1.58-1.293.923-.716-.657.148-1.684.148-1.684S.493 42.248.049 43.437c-.443 1.19 2.239 1.315 2.239 1.315s-.842 1.086-.274 1.854c.576.768 1.544.148 1.544.148s-1.256-.82-.657-1.485c.598-.665.879.236 1.012.436.133.207 1.374 2.26 4.772 1.012 0 0-.414 1.876-.385 3.28.03 1.403-.952 3.286-3.139 2.03 0 0-.362 1.936-.17 3.716 0 0-.709 1.352-2.334 1.027 0 0 .938.864 2.157.45 0 0-.672 1.035-1.75.85 0 0 .834.606 1.676.406 0 0-.554 1.042-1.381.975 0 0 .657.857 1.92.673 0 0-.177.827-.147 1.684.022.864-.2 1.536-.2 1.536s1.507-.377 1.618.406c.11.776.044 1.153.044 1.153s1.655-1.285 1.935-1.1c.281.184 1.057 1.617 1.057 1.617s.753-1.802 1.167-1.389c.413.414.546.65.546.65s.31-.65-.103-1.063c-.414-.414-.85-.953-.62-1.057.236-.103 1.285.828 1.3 1.308.007.487.08.953.08.953s.954-1.685 1.884-.562c0 0 .023-1.285-.827-2.437 0 0-2.563.45-3.545-1.626-.983-2.075.524-5.57 2.511-6.552 1.987-.982 5.518-2.77 6.22-9.218.701-6.449 6.758-6.545 7.807-6.966 1.05-.42 2.711-.894 4.078-3.856 0 0 3.014.842 3.05 1.411.038.576-.014 4.151 1.56 4.897 0 0 .228-1.085 1.27-1.359 0 0-2.615.51-1.943-2.097 0 0-.62-.783-.244-1.61 0 0 .717.295.768.834.06.54.68 1.248 1.249 1.307 0 0-.702-.68-.104-1.226.591-.546.554-.554.554-.554s.096-1.197 0-1.662v.001z" fill="#005141"/><path d="M14.978 50.92s.842-1.079 1.27-3.39zm10.873-7.646c2.837.754 1.795 2.97 1.795 2.97l-1.795-2.97zm-3.553 9.071s1.005-.347 1.13-1.676c0 0 .296 1.27-.443 1.662 0 0 .606 1.13 1.093 1.38 0 0-.864-.413-1.78-1.366zm10.268 4.706c-1.98-.192-2.268-.732-2.268-.732.34.052.923-.08.923-.08s-2.334-1.81-3.745-3.923c-1.41-2.113 1.47-4.602 1.47-4.602s.71-2.534-.93-4.661c-1.64-2.128-5.806-2.297-5.806-2.297-1.22.472-3.524 3.789-3.524 3.789 2.268.598 2.984 2.15 2.984 2.15-1.38-1.256-3.161-1.182-3.161-1.182-.207.938-.177 1.654-.177 1.654 2.999.259 3.53 1.337 3.796 1.803.266.465.673 1.972-.709 2.12-1.381.147.488 2.223 1.27 2.74.784.517-.28 2.135-.28 2.135s.296-.244 1.056-.65c.761-.4-.34 1.418-.34 1.418s.547-.126 1.197-.532c.643-.406-.118 1.514-.118 1.514 1.285.023 1.906-1.248 1.906-1.248.48.222 2.083 1.655 2.083 1.655-.495.982-.14 2.112-.14 2.112s.214-.45.687-.687c.465-.236 1.41 1.396 1.41 1.396.636-.177 1.39-1.034 1.39-1.034-.016 1.145 1.343 1.537 1.343 1.537-.458-2.312.909-2.061 1.264-1.67.354.384.775 1.374.856.776.082-.598-.487-1.455-.487-1.455.37.125.805.657.805.657.214-.362 1.086-.37 1.086-.37-.06-1.233-1.862-2.141-3.841-2.333zm41.794-.517H40.603V17.39H74.36v39.144zm2.356-39.645c.096-.45.436-1.544 1.153-1.957-.37-.074-.636-.192-.828-.503-.605.2-.79.089-1.278-.11-.524.62-1.152.723-1.152.723s-.399-.487-.443-.938c-.259.214-.547.503-.694.813-.193-.148-.495-.421-.636-.82a3.136 3.136 0 00-.569.938c-.376-.362-.605-1.315-.605-1.315H43.29s-.229.953-.605 1.315c0 0-.192-.51-.57-.938-.14.399-.442.672-.634.82-.148-.31-.429-.599-.687-.813-.045.45-.444.938-.444.938s-.627-.096-1.152-.724c-.487.2-.672.31-1.278.111-.184.31-.458.429-.827.503.716.413 1.056 1.506 1.152 1.957-.583.207-1.315-.044-1.315-.044v12.757c.894.073 1.47.657 1.47.657s-1.07.59-1.47 1.433v25.47c1.758 1.307 1.515 3.043 1.515 3.043h38.07s-.243-1.729 1.515-3.044V31.692c-.399-.842-1.47-1.433-1.47-1.433s.576-.584 1.47-.657V16.845c-.003 0-.732.25-1.315.044h.001zm6.648 9.322c-1.026.93-1.255 2.371-.354 2.792l-.931.466s-.776-.776-.465-1.788c.303-1.012 2.932-2.66 3.464-3.738 0 0-.694 1.345-1.714 2.268zm18.282-12.225c-.059.037-.088.052-.088.052z" fill="#005141"/><path d="M93.72 27.341c-.938.407-1.366 1.426-1.366 1.426.332.354.85.583.85.583-.355.998-1.796 2.157-1.796 2.157.259.2.953.421.953.421-.243.31-.465.429-.465.429.31.354.82.495.82.495s-.842.236-1.352-.015c-.517-.259-.273.628-.273.628.798 1.115.258 1.366-.93 1.41a4.99 4.99 0 01-2.12-.398c.634 1.647 2.186 2.6 2.186 2.6-2.608-1.115-3.465-3.65-3.465-3.65a17.257 17.257 0 00-1.758.082s.953-.68 2.061-.68c.015.06.052.104.081.148.901 1.478 3.14 1.419 3.56 1.404.43-.015.126-.466-.516-.872-.643-.406-1.374-1.381-1.374-1.381s.65.465 1.322.835c.672.376.805.17.48-.163-.325-.332-.583-1.123-.583-1.123 1.048 1.167 1.337.495 1.337.495-.325-.273-.458-.731-.458-.731.923-.495 1.617-1.869 1.617-1.869-.376-.126-.945-.68-.945-.68.613-1.255 2.12-2.26 2.12-2.26-.022-.487-.45-1.359-.45-1.359-1.065 1.36-2.837 2.342-2.837 2.342-2.586-.931-1.53-3.406-1.071-4.144a9.198 9.198 0 00.672-1.256c.28.561-.244 1.817-.576 2.947-.333 1.13.864 1.684.864 1.684 2.733-1.189 4.868-4.594 4.868-4.594-.303 1.13-1.256 2.482-1.256 2.482.886 2.23.273 2.851.872 4.838.495 1.64 1.58 1.987 1.58 1.987s-2.43-.303-2.651-4.218h-.001zm-.82-8.886c.924-.798 2.268-1.61 2.992-1.721 0 0-1.204.54-2.268 1.61-1.063 1.071-2.991 1.721-2.991 1.721s1.344-.805 2.268-1.61H92.9zm5.866-8.62c-.4 4.639-4.47 3.989-4.47 3.989l4.47-3.989zm2.238 6.633c.052 2.445-3.369 2.836-3.369 2.836l3.369-2.836zm1.241-8.561s3.56 3.627-.599 6.086l.599-6.086zm12.609 35.53c-.443-1.19-1.729-1.079-1.729-1.079s.872 1.027.148 1.685c-.724.657-1.27-.207-1.292-.924-.03-.716-.547-3.76-3.967-5.724-3.428-1.965-3.834-3.635-4.04-4.492-.208-.849.716-.797 1.144-.044.429.754 1.721.081.828-.916-.902-.997-2.187-.207-2.187-.207s.23-.842 1.788-.495c1.558.34 1.558-1.292 1.558-1.292-2.437.037-3.442 1.359-3.442 1.359.798-1.573 3.206-1.58 3.937-1.869.731-.288.658-1.603.658-1.603s-.37-.015-2.032.761-2.858 2.511-2.858 2.511c.125-.768 2.2-2.452 4.38-4.483 2.179-2.032-.03-4.809-.03-4.809-.243 4.595-4.845 7.172-4.964 10.23-.11 3.059 1.448 4.876 4.455 6.782 3.013 1.913 3.73 4.594 2.179 6.064-1.551 1.47-3.45-.251-3.524-1.24-.074-.99-.31-4.115-4.092-7.255-3.79-3.139-3.346-7.778-3.346-7.778-.842 1.98-.968 3.745-.222 5.2.746 1.463 3.08 2.748 3.08 2.748s-4.41-1.44-4.705-4.69c-.295-3.258 2.09-4.58 2.09-4.58 1.123.93 2.054 3.53 2.054 3.53.569-2.282.694-5.783.694-5.783.503.465 1.677 3.457 1.677 3.457.71-1.692.695-5.983.695-5.983.546.783 1.447 2.725 1.447 2.725.806-2.09.414-7.26.414-7.26.332.413.591 2.2.591 2.2 2.054-6.345-1.1-8.974-1.1-8.974.701.376 1.588.399 1.588.399-1.145-.761-2.268-3.155-2.807-4.625-.54-1.47-2.187-2.526-2.187-2.526-2.216 3.435-4.21 2.97-4.21 2.97.472 4.41-3 4.83-3 4.83-.686 2.128-2.673 2.047-5.333 2.416-2.659.37-2.895 2.246-2.895 2.246 1.19.03 2.77-1.44 2.77-1.44s-.82 1.484-2.822 2.208c-1.994.724-2.748 2.127-3.516 3.989-.768 1.861-1.064 2.253-1.064 2.253 1.094-.385 3.236-2.342 3.236-2.342-.732 1.898-5.008 3.856-5.644 5.296-.635 1.44.421 3 .421 3 3.768.62 6.951-4.049 6.951-4.049s-.332 1.234-2.592 3.191c-2.253 1.958-4.61 1.36-4.61 1.36.214.561-.982 1.255-.982 1.255.436.362.317 1.404.221 1.862-.096.465-.014 1.684-.014 1.684s-.037 0 .554.554c.59.554-.104 1.226-.104 1.226.569-.059 1.197-.768 1.249-1.307.059-.54.768-.835.768-.835.376.827-.244 1.61-.244 1.61.672 2.608-1.943 2.098-1.943 2.098 1.042.266 1.27 1.36 1.27 1.36 1.574-.747 1.53-4.33 1.56-4.898.036-.576 3.05-1.411 3.05-1.411 1.374 2.962 3.036 3.435 4.078 3.856 1.049.42 7.106.517 7.807 6.966.702 6.448 4.233 8.236 6.22 9.218 1.987.983 3.494 4.477 2.511 6.552-.982 2.069-3.545 1.625-3.545 1.625-.842 1.153-.827 2.438-.827 2.438.93-1.123 1.883.561 1.883.561s.067-.458.081-.953c.008-.487 1.064-1.418 1.3-1.307.23.103-.206.643-.62 1.056-.414.414-.103 1.064-.103 1.064s.133-.236.546-.65c.414-.414 1.167 1.389 1.167 1.389s.776-1.433 1.057-1.618c.28-.185 1.935 1.1 1.935 1.1s-.074-.369.044-1.152c.111-.775 1.618-.406 1.618-.406s-.229-.68-.2-1.536c.023-.857-.147-1.685-.147-1.685 1.27.178 1.92-.672 1.92-.672-.827.06-1.381-.975-1.381-.975.835.2 1.677-.406 1.677-.406-1.079.185-1.75-.85-1.75-.85 1.218.414 2.156-.45 2.156-.45-1.618.317-2.334-1.027-2.334-1.027.192-1.788-.17-3.715-.17-3.715-2.187 1.255-3.176-.628-3.14-2.032.038-1.403-.383-3.28-.383-3.28 3.397 1.249 4.638-.805 4.771-1.012.133-.206.414-1.108 1.012-.435.599.664-.657 1.484-.657 1.484s.968.62 1.544-.147c.576-.769-.274-1.854-.274-1.854s2.69-.104 2.246-1.293z" fill="#005141"/><path d="M98.81 47.53c.428 2.311 1.27 3.39 1.27 3.39zm-6.042 4.815c-.916.953-1.78 1.367-1.78 1.367.487-.244 1.093-1.381 1.093-1.381-.739-.392-.444-1.662-.444-1.662.126 1.33 1.13 1.676 1.13 1.676h.001zm-5.348-6.101s-1.042-2.216 1.795-2.97l-1.795 2.97zm8.975-.731s-1.78-.074-3.162 1.181c0 0 .717-1.543 2.984-2.15 0 0-2.304-3.323-3.523-3.788 0 0-4.166.177-5.806 2.297-1.64 2.127-.93 4.66-.93 4.66s2.88 2.49 1.469 4.603c-1.41 2.12-3.745 3.922-3.745 3.922s.576.133.916.081c0 0-.288.547-2.268.732-1.98.192-3.782 1.1-3.848 2.363 0 0 .871.008 1.086.37 0 0 .435-.532.805-.658 0 0-.57.85-.488 1.456.081.598.502-.392.857-.776s1.721-.635 1.263 1.67c0 0 1.36-.392 1.345-1.537 0 0 .746.857 1.388 1.034 0 0 .938-1.64 1.411-1.396.465.244.687.687.687.687s.362-1.13-.14-2.113c0 0 1.61-1.433 2.083-1.654 0 0 .62 1.263 1.906 1.248 0 0-.761-1.92-.119-1.514a4.27 4.27 0 001.197.532s-1.1-1.825-.34-1.419c.761.4 1.057.65 1.057.65s-1.064-1.625-.281-2.134c.783-.517 2.652-2.593 1.27-2.74-1.381-.149-.982-1.655-.709-2.12.28-.496.813-1.582 3.812-1.833 0-.003.029-.718-.177-1.654z" fill="#005141"/><path d="M41.578 31.581H57.48V55.56H41.578V31.581zM57.48 18.366h15.904v13.208H57.48V18.366z" fill="#4370FF"/><path d="M90.057 9.318s.162.236.399.413c0 0-.015-.332.177-.783 0 .008-.443.274-.576.37zm.532 2.038s.273.096.576.14c0 0-.443-.398-.495-.686 0 0-.148.11-.081.546zM24.854 9.34s-.162.236-.399.413c0 0 .015-.332-.177-.783 0 .008.443.274.576.37zm-.532 2.039s-.273.096-.576.14c0 0 .443-.399.495-.687 0 0 .148.11.081.547z" fill="#005141"/></svg>