<svg width="270" height="270" fill="none" xmlns="http://www.w3.org/2000/svg"><g filter="url(#filter0_f)"><path d="M134.75 5l10.28 12.244 12.25-10.273 7.999 13.844 13.848-7.99 5.473 15.022 15.025-5.464 2.78 15.744 15.747-2.771.004 15.988 15.988.004-2.771 15.746 15.744 2.781-5.464 15.025 15.022 5.473-7.99 13.848 13.844 7.998-10.273 12.25L264.5 134.75l-12.244 10.28 10.273 12.25-13.844 7.999 7.99 13.848-15.022 5.473 5.464 15.025-15.744 2.781 2.771 15.746-15.988.004-.004 15.988-15.746-2.771-2.781 15.744-15.025-5.464-5.473 15.022-13.848-7.99-7.998 13.844-12.25-10.273L134.75 264.5l-10.28-12.244-12.25 10.273-7.999-13.844-13.848 7.99-5.473-15.022-15.025 5.464-2.78-15.744-15.747 2.771-.005-15.988-15.987-.004 2.771-15.746-15.744-2.781 5.464-15.025-15.022-5.473 7.99-13.848-13.844-7.998 10.273-12.25L5 134.75l12.244-10.28-10.273-12.25 13.844-7.999-7.99-13.848L27.847 84.9l-5.464-15.025 15.744-2.78-2.771-15.747 15.987-.004.005-15.988 15.746 2.771 2.78-15.744L84.9 27.847l5.473-15.022 13.848 7.99L112.22 6.97l12.25 10.273L134.75 5z" fill="#4370FF"/></g><path d="M134.75 5l10.28 12.244 12.25-10.273 7.999 13.844 13.848-7.99 5.473 15.022 15.025-5.464 2.78 15.744 15.747-2.771.004 15.988 15.988.004-2.771 15.746 15.744 2.781-5.464 15.025 15.022 5.473-7.99 13.848 13.844 7.998-10.273 12.25L264.5 134.75l-12.244 10.28 10.273 12.25-13.844 7.999 7.99 13.848-15.022 5.473 5.464 15.025-15.744 2.781 2.771 15.746-15.988.004-.004 15.988-15.746-2.771-2.781 15.744-15.025-5.464-5.473 15.022-13.848-7.99-7.998 13.844-12.25-10.273L134.75 264.5l-10.28-12.244-12.25 10.273-7.999-13.844-13.848 7.99-5.473-15.022-15.025 5.464-2.78-15.744-15.747 2.771-.005-15.988-15.987-.004 2.771-15.746-15.744-2.781 5.464-15.025-15.022-5.473 7.99-13.848-13.844-7.998 10.273-12.25L5 134.75l12.244-10.28-10.273-12.25 13.844-7.999-7.99-13.848L27.847 84.9l-5.464-15.025 15.744-2.78-2.771-15.747 15.987-.004.005-15.988 15.746 2.771 2.78-15.744L84.9 27.847l5.473-15.022 13.848 7.99L112.22 6.97l12.25 10.273L134.75 5z" fill="#4370FF"/><path d="M69.652 155.496l-4.996.951-6.303-33.12-9.32 5.587-.858-4.513 13.22-8.055.778-.148 7.48 39.298zm35.909-24.119c1.108 5.82.937 10.334-.512 13.542-1.449 3.207-4.287 5.213-8.513 6.018-4.173.794-7.524.003-10.055-2.373-2.534-2.394-4.36-6.333-5.478-11.817l-1.262-6.635c-1.094-5.749-.913-10.209.543-13.381 1.456-3.172 4.306-5.161 8.55-5.969 4.209-.801 7.564-.038 10.066 2.287 2.499 2.308 4.311 6.269 5.434 11.881l1.227 6.447zm-6.262-5.85c-.801-4.208-1.975-7.158-3.522-8.849-1.55-1.71-3.605-2.32-6.166-1.833-2.543.484-4.214 1.795-5.013 3.932-.8 2.138-.839 5.198-.118 9.18l1.513 7.951c.805 4.227 2.008 7.236 3.61 9.027 1.618 1.771 3.672 2.419 6.16 1.946 2.454-.467 4.091-1.762 4.912-3.885.838-2.127.896-5.237.173-9.33l-1.55-8.139zm52.87-26.262l7.443 39.111-5.158.981-6.635-34.866-14.022 2.669 2.251 15.632c.72 5.244.926 9.25.618 12.018-.291 2.765-1.088 4.911-2.393 6.44-1.309 1.511-3.249 2.529-5.821 3.056l-1.692.322-.802-4.217 1.064-.258c1.641-.443 2.82-1.224 3.534-2.343.712-1.138 1.101-2.798 1.168-4.982.066-2.184-.216-5.47-.847-9.859l-2.803-19.118 24.095-4.586zm35.484 15.042l-16.949 3.225 2.637 13.861 19.69-3.747.803 4.217-24.847 4.729-7.444-39.11 24.579-4.678.808 4.244-19.421 3.696 2.392 12.571 16.95-3.226.802 4.218zm33.525-23.777l-12.571 2.392 6.635 34.867-5.13.976-6.636-34.866-12.544 2.387-.808-4.244 30.246-5.756.808 4.244zM73.957 171.558l-9.574 1.823 3.394 17.824-3.569.68-3.952-20.76 13.142-2.502.56 2.935zm19.3 14.796c-.283-.37-.588-1.068-.916-2.092-1.323 2.028-3.13 3.26-5.42 3.696-2.046.39-3.838.134-5.374-.766-1.527-.916-2.46-2.262-2.798-4.04-.411-2.162.088-3.993 1.5-5.495 1.42-1.516 3.621-2.558 6.601-3.126l3.454-.657-.31-1.631c-.237-1.241-.795-2.155-1.676-2.743-.883-.601-2.047-.763-3.493-.488-1.266.241-2.267.763-3.002 1.566-.735.802-1.016 1.658-.844 2.566l-3.568.679c-.198-1.036-.023-2.103.523-3.201.557-1.113 1.409-2.071 2.555-2.872 1.16-.804 2.494-1.35 4.003-1.637 2.392-.456 4.38-.211 5.965.733 1.582.931 2.599 2.441 3.05 4.529l1.819 9.555c.363 1.906.894 3.375 1.595 4.408l.058.307-3.722.709zm-6.406-1.584a6.347 6.347 0 003.002-1.466c.888-.765 1.468-1.651 1.74-2.657l-.81-4.26-2.783.53c-4.349.828-6.28 2.515-5.796 5.06.212 1.113.748 1.912 1.61 2.398.86.485 1.873.617 3.037.395zm30.567-13.534c.602 3.16.363 5.843-.714 8.049-1.078 2.207-2.851 3.545-5.32 4.015-2.519.48-4.654.058-6.404-1.266l1.903 9.997-3.549.675-5.473-28.741 3.243-.617.611 2.269c1.104-2.066 2.942-3.344 5.513-3.833 2.494-.475 4.643.09 6.446 1.695 1.817 1.603 3.044 4.08 3.682 7.431l.062.326zm-3.626.273c-.446-2.341-1.297-4.094-2.553-5.26-1.255-1.166-2.753-1.583-4.493-1.252-2.149.409-3.579 1.669-4.29 3.78l1.888 9.919c1.422 1.691 3.227 2.328 5.414 1.912 1.701-.324 2.923-1.253 3.665-2.786.752-1.548.875-3.652.369-6.313zm22.903 6.575c-.282-.371-.588-1.068-.915-2.093-1.324 2.028-3.131 3.26-5.42 3.696-2.047.39-3.838.135-5.375-.766-1.526-.915-2.459-2.262-2.797-4.04-.412-2.162.088-3.993 1.499-5.494 1.421-1.517 3.621-2.559 6.602-3.126l3.453-.658-.31-1.631c-.236-1.241-.795-2.155-1.676-2.743-.883-.6-2.047-.763-3.492-.488-1.267.241-2.268.763-3.003 1.566-.735.803-1.016 1.658-.843 2.566l-3.569.68c-.197-1.036-.023-2.103.524-3.202.557-1.113 1.408-2.07 2.555-2.872 1.159-.804 2.493-1.349 4.002-1.637 2.392-.455 4.381-.211 5.965.733 1.583.932 2.599 2.442 3.05 4.53l1.819 9.554c.363 1.906.894 3.376 1.595 4.409l.058.307-3.722.709zm-6.405-1.584a6.354 6.354 0 003.001-1.466c.888-.766 1.468-1.652 1.741-2.658l-.811-4.259-2.782.529c-4.349.828-6.281 2.515-5.797 5.06.212 1.113.749 1.912 1.61 2.398.861.485 1.874.617 3.038.396zm31.923-3.275l-3.549.676-1.688-8.864-9.536 1.815 1.688 8.864-3.569.68-3.952-20.76 3.568-.68 1.714 8.999 9.535-1.816-1.713-8.998 3.55-.676 3.952 20.76zm17.739-21.908l-6.965 1.326 3.405 17.882-3.549.676-3.405-17.882-6.83 1.301-.548-2.878 17.344-3.303.548 2.878zm16.336-6.092l3.55-.676 3.953 20.76-3.55.675-2.882-15.138-6.692 16.961-3.55.676-3.952-20.76 3.549-.675 2.886 15.157 6.688-16.98zm22.679-4.318l3.549-.676 3.953 20.76-3.549.676-2.883-15.139-6.692 16.961-3.549.676-3.953-20.76 3.55-.675 2.886 15.157 6.688-16.98z" fill="#fff"/><defs><filter id="filter0_f" x=".2" y=".2" width="269.1" height="269.1" filterUnits="userSpaceOnUse" color-interpolation-filters="sRGB"><feFlood flood-opacity="0" result="BackgroundImageFix"/><feBlend in="SourceGraphic" in2="BackgroundImageFix" result="shape"/><feGaussianBlur stdDeviation="2.4" result="effect1_foregroundBlur"/></filter></defs></svg>