<svg xmlns="http://www.w3.org/2000/svg" width="1921" height="60"><path fill="#145F50" d="M7.668.865V55.8a3.35 3.35 0 01-3.387 3.387c-1.893 0-3.38-1.487-3.38-3.387V.865zm9.472 0v32.136c0 .882-.812 1.693-1.694 1.693-.946 0-1.693-.81-1.693-1.693V.865zm13.798 0v32.136c0 .882-.74 1.693-1.687 1.693-.946 0-1.694-.81-1.694-1.693V.865zm12.516 0v32.136c0 .882-.74 1.693-1.693 1.693-.875 0-1.687-.81-1.687-1.693V.865zm12.724 0v32.136c0 .882-.747 1.693-1.694 1.693-.946 0-1.693-.81-1.693-1.693V.865zm14.068 0V49.31c0 1.217-1.153 2.299-2.505 2.299-1.416 0-2.569-1.082-2.569-2.299V.865zm10.282 0v32.136c0 .882-.74 1.693-1.686 1.693-.954 0-1.694-.81-1.694-1.693V.865zm13.805 0v32.136c0 .882-.747 1.693-1.693 1.693-.876 0-1.694-.81-1.694-1.693V.865zm12.581 0v32.136c0 .882-.74 1.693-1.693 1.693-.947 0-1.687-.81-1.687-1.693V.865zm12.652 0v32.136c0 .882-.747 1.693-1.693 1.693-.875 0-1.687-.81-1.687-1.693V.865zm15.357 0V55.8c0 1.9-1.488 3.387-3.38 3.387a3.39 3.39 0 01-3.38-3.387V.865zm9.471 0v32.136c0 .882-.74 1.693-1.686 1.693-.947 0-1.694-.81-1.694-1.693V.865zm13.805 0v32.136c0 .882-.747 1.693-1.694 1.693-.946 0-1.693-.81-1.693-1.693V.865zm12.581 0v32.136c0 .882-.811 1.693-1.687 1.693-.953 0-1.693-.81-1.693-1.693V.865zm12.652 0v32.136c0 .882-.74 1.693-1.694 1.693-.946 0-1.686-.81-1.686-1.693V.865zm14.075 0V49.31c0 1.217-1.081 2.299-2.505 2.299-1.423 0-2.568-1.082-2.568-2.299V.865zm10.283 0v32.136c0 .882-.747 1.693-1.694 1.693-.875 0-1.693-.81-1.693-1.693V.865zm13.869 0v32.136c0 .882-.811 1.693-1.694 1.693-.946 0-1.693-.81-1.693-1.693V.865zm12.517 0v32.136c0 .882-.748 1.693-1.694 1.693s-1.693-.81-1.693-1.693V.865zm12.716 0v32.136c0 .882-.811 1.693-1.694 1.693-.946 0-1.686-.81-1.686-1.693V.865zm18.743 0V55.8c0 1.9-1.558 3.387-3.387 3.387-1.893 0-3.38-1.487-3.38-3.387V.865zm9.4 0v32.136c0 .882-.74 1.693-1.693 1.693-.947 0-1.687-.81-1.687-1.693V.865zm13.805 0v32.136c0 .882-.747 1.693-1.693 1.693-.883 0-1.694-.81-1.694-1.693V.865zm12.581 0v32.136c0 .882-.74 1.693-1.693 1.693-.947 0-1.687-.81-1.687-1.693V.865zm12.652 0v32.136c0 .882-.747 1.693-1.693 1.693-.875 0-1.687-.81-1.687-1.693V.865zm15.357 0V49.31c0 1.217-1.082 2.299-2.505 2.299-1.416 0-2.57-1.082-2.57-2.299V.865zm10.282 0v32.136c0 .882-.74 1.693-1.686 1.693-.883 0-1.694-.81-1.694-1.693V.865zm13.869 0v32.136c0 .882-.811 1.693-1.687 1.693-.946 0-1.693-.81-1.693-1.693V.865zm12.517 0v32.136c0 .882-.74 1.693-1.687 1.693-.953 0-1.693-.81-1.693-1.693V.865zm12.723 0v32.136c0 .882-.811 1.693-1.693 1.693-.947 0-1.694-.81-1.694-1.693V.865zm16.573 0V55.8c0 1.9-1.487 3.387-3.38 3.387-1.829 0-3.387-1.487-3.387-3.387V.865zm9.471 0v32.136c0 .882-.747 1.693-1.693 1.693-.946 0-1.687-.81-1.687-1.693V.865zm13.798 0v32.136c0 .882-.74 1.693-1.686 1.693-.947 0-1.694-.81-1.694-1.693V.865zm12.588 0v32.136c0 .882-.81 1.693-1.693 1.693-.947 0-1.694-.81-1.694-1.693V.865zm12.652 0v32.136c0 .882-.747 1.693-1.693 1.693-.947 0-1.694-.81-1.694-1.693V.865zm14.546 0V49.31c0 1.217-1.153 2.299-2.57 2.299-1.423 0-2.504-1.082-2.504-2.299V.865zm10.282 0v32.136c0 .882-.811 1.693-1.694 1.693-.946 0-1.686-.81-1.686-1.693V.865zm13.805 0v32.136c0 .882-.747 1.693-1.694 1.693-.946 0-1.693-.81-1.693-1.693V.865zm12.51 0v32.136c0 .882-.74 1.693-1.687 1.693-.882 0-1.693-.81-1.693-1.693V.865zm12.723 0v32.136c0 .882-.747 1.693-1.694 1.693-.946 0-1.693-.81-1.693-1.693V.865zm17.455 0V55.8a3.35 3.35 0 01-3.387 3.387c-1.893 0-3.38-1.487-3.38-3.387V.865zm9.472 0v32.136c0 .882-.812 1.693-1.694 1.693-.946 0-1.693-.81-1.693-1.693V.865zm13.797 0v32.136c0 .882-.74 1.693-1.686 1.693-.954 0-1.694-.81-1.694-1.693V.865zm12.517 0v32.136c0 .882-.74 1.693-1.693 1.693-.875 0-1.687-.81-1.687-1.693V.865zm12.724 0v32.136c0 .882-.747 1.693-1.694 1.693-.946 0-1.693-.81-1.693-1.693V.865zm14.95 0V49.31c0 1.217-1.152 2.299-2.576 2.299-1.416 0-2.497-1.082-2.497-2.299V.865zm10.283 0v32.136c0 .882-.811 1.693-1.694 1.693-.946 0-1.693-.81-1.693-1.693V.865zm13.798 0v32.136c0 .882-.74 1.693-1.687 1.693-.946 0-1.693-.81-1.693-1.693V.865zm12.517 0v32.136c0 .882-.74 1.693-1.687 1.693-.882 0-1.693-.81-1.693-1.693V.865zm12.723 0v32.136c0 .882-.747 1.693-1.694 1.693-.946 0-1.693-.81-1.693-1.693V.865zm16.637 0V55.8a3.39 3.39 0 01-3.38 3.387c-1.893 0-3.38-1.487-3.38-3.387V.865zm9.408 0v32.136c0 .882-.748 1.693-1.694 1.693-.947 0-1.687-.81-1.687-1.693V.865zm13.804 0v32.136c0 .882-.747 1.693-1.694 1.693-.882 0-1.693-.81-1.693-1.693V.865zm12.581 0v32.136c0 .882-.747 1.693-1.693 1.693-.947 0-1.687-.81-1.687-1.693V.865zm12.652 0v32.136c0 .882-.747 1.693-1.693 1.693-.883 0-1.694-.81-1.694-1.693V.865zm15.833 0V49.31c0 1.217-1.153 2.299-2.576 2.299-1.416 0-2.505-1.082-2.505-2.299V.865zm10.283 0v32.136c0 .882-.812 1.693-1.694 1.693-.946 0-1.694-.81-1.694-1.693V.865zm13.797 0v32.136c0 .882-.74 1.693-1.686 1.693-.954 0-1.694-.81-1.694-1.693V.865zm12.517 0v32.136c0 .882-.747 1.693-1.693 1.693-.875 0-1.687-.81-1.687-1.693V.865zm12.717 0v32.136c0 .882-.74 1.693-1.687 1.693-.946 0-1.694-.81-1.694-1.693V.865zm14.48 0V55.8c0 1.9-1.487 3.387-3.38 3.387-1.828 0-3.387-1.487-3.387-3.387V.865zm9.472 0v32.136c0 .882-.747 1.693-1.694 1.693-.946 0-1.686-.81-1.686-1.693V.865zm13.804 0v32.136c0 .882-.747 1.693-1.693 1.693-.946 0-1.694-.81-1.694-1.693V.865zm12.582 0v32.136c0 .882-.812 1.693-1.694 1.693-.946 0-1.686-.81-1.686-1.693V.865zm12.652 0v32.136c0 .882-.747 1.693-1.694 1.693-.946 0-1.686-.81-1.686-1.693V.865zm14.95 0V49.31c0 1.217-1.152 2.299-2.569 2.299-1.352 0-2.504-1.082-2.504-2.299V.865zm10.283 0v32.136c0 .882-.74 1.693-1.694 1.693-.946 0-1.686-.81-1.686-1.693V.865zm13.805 0v32.136c0 .882-.747 1.693-1.694 1.693-.946 0-1.693-.81-1.693-1.693V.865zm12.581 0v32.136c0 .882-.811 1.693-1.694 1.693-.946 0-1.686-.81-1.686-1.693V.865zm12.652 0v32.136c0 .882-.747 1.693-1.694 1.693-.946 0-1.686-.81-1.686-1.693V.865zm16.239 0V55.8c0 1.9-1.559 3.387-3.388 3.387-1.892 0-3.38-1.487-3.38-3.387V.865zm9.4 0v32.136c0 .882-.74 1.693-1.687 1.693-.946 0-1.693-.81-1.693-1.693V.865zm13.804 0v32.136c0 .882-.747 1.693-1.693 1.693-.875 0-1.694-.81-1.694-1.693V.865zm12.582 0v32.136c0 .882-.74 1.693-1.694 1.693-.946 0-1.687-.81-1.687-1.693V.865zm12.652 0v32.136c0 .882-.747 1.693-1.694 1.693-.875 0-1.686-.81-1.686-1.693V.865zm13.264 0V49.31c0 1.217-1.153 2.299-2.505 2.299-1.423 0-2.576-1.082-2.576-2.299V.865zm10.282 0v32.136c0 .882-.747 1.693-1.693 1.693-.947 0-1.694-.81-1.694-1.693V.865zm13.798 0v32.136c0 .882-.74 1.693-1.686 1.693-.883 0-1.694-.81-1.694-1.693V.865zm12.588 0v32.136c0 .882-.747 1.693-1.694 1.693-.946 0-1.693-.81-1.693-1.693V.865zm12.646 0v32.136c0 .882-.74 1.693-1.687 1.693-.883 0-1.694-.81-1.694-1.693V.865zm16.238 0V55.8c0 1.9-1.487 3.387-3.38 3.387-1.893 0-3.38-1.487-3.38-3.387V.865zm9.407 0v32.136c0 .882-.747 1.693-1.694 1.693-.875 0-1.693-.81-1.693-1.693V.865zm13.869 0v32.136c0 .882-.811 1.693-1.694 1.693-.946 0-1.693-.81-1.693-1.693V.865zm12.516 0v32.136c0 .882-.746 1.693-1.693 1.693-.946 0-1.693-.81-1.693-1.693V.865zm12.717 0v32.136c0 .882-.811 1.693-1.694 1.693-.946 0-1.686-.81-1.686-1.693V.865zm12.382 0V49.31c0 1.217-1.153 2.299-2.57 2.299-1.351 0-2.504-1.082-2.504-2.299V.865zm10.282 0v32.136c0 .882-.747 1.693-1.693 1.693-.947 0-1.687-.81-1.687-1.693V.865zm13.805 0v32.136c0 .882-.747 1.693-1.693 1.693-.947 0-1.694-.81-1.694-1.693V.865zm12.581 0v32.136c0 .882-.811 1.693-1.693 1.693-.947 0-1.687-.81-1.687-1.693V.865zm12.653 0v32.136c0 .882-.748 1.693-1.694 1.693-.947 0-1.694-.81-1.694-1.693V.865zm13.256 0V55.8c0 1.9-1.487 3.387-3.38 3.387-1.893 0-3.38-1.487-3.38-3.387V.865zm9.408 0v32.136c0 .882-.748 1.693-1.694 1.693-.875 0-1.694-.81-1.694-1.693V.865zm13.868 0v32.136c0 .882-.81 1.693-1.693 1.693-.947 0-1.687-.81-1.687-1.693V.865zm12.518 0v32.136c0 .882-.748 1.693-1.694 1.693-.947 0-1.694-.81-1.694-1.693V.865zm12.716 0v32.136c0 .882-.812 1.693-1.694 1.693-.947 0-1.687-.81-1.687-1.693V.865zm15.626 0V49.31c0 1.217-1.145 2.299-2.569 2.299-1.352 0-2.504-1.082-2.504-2.299V.865zm10.29 0v32.136c0 .882-.747 1.693-1.694 1.693-.946 0-1.693-.81-1.693-1.693V.865zm13.798 0v32.136c0 .882-.748 1.693-1.694 1.693s-1.686-.81-1.686-1.693V.865zm12.516 0v32.136c0 .882-.747 1.693-1.693 1.693-.875 0-1.687-.81-1.687-1.693V.865zm12.717 0v32.136c0 .882-.74 1.693-1.687 1.693-.946 0-1.693-.81-1.693-1.693V.865zm15.904 0V55.8c0 1.9-1.495 3.387-3.387 3.387a3.39 3.39 0 01-3.38-3.387V.865zm9.471 0v32.136c0 .882-.747 1.693-1.693 1.693-.947 0-1.694-.81-1.694-1.693V.865zm13.798 0v32.136c0 .882-.74 1.693-1.694 1.693-.946 0-1.686-.81-1.686-1.693V.865zm12.588 0v32.136c0 .882-.818 1.693-1.694 1.693-.946 0-1.693-.81-1.693-1.693V.865zm12.645 0v32.136c0 .882-.74 1.693-1.686 1.693-.947 0-1.694-.81-1.694-1.693V.865zm11.706 0V49.31c0 1.217-1.146 2.299-2.57 2.299-1.351 0-2.504-1.082-2.504-2.299V.865zm10.282 0v32.136c0 .882-.74 1.693-1.686 1.693-.947 0-1.694-.81-1.694-1.693V.865zm13.805 0v32.136c0 .882-.747 1.693-1.694 1.693-.946 0-1.693-.81-1.693-1.693V.865zm12.581 0v32.136c0 .882-.811 1.693-1.686 1.693-.954 0-1.694-.81-1.694-1.693V.865zm12.652 0v32.136c0 .882-.74 1.693-1.693 1.693-.947 0-1.687-.81-1.687-1.693V.865zm16.915 0V55.8c0 1.9-1.487 3.387-3.38 3.387a3.35 3.35 0 01-3.387-3.387V.865zm9.471 0v32.136c0 .882-.811 1.693-1.694 1.693-.946 0-1.686-.81-1.686-1.693V.865zm13.805 0v32.136c0 .882-.747 1.693-1.694 1.693-.946 0-1.693-.81-1.693-1.693V.865zm12.51 0v32.136c0 .882-.74 1.693-1.687 1.693-.882 0-1.693-.81-1.693-1.693V.865zm12.724 0v32.136c0 .882-.748 1.693-1.694 1.693-.947 0-1.694-.81-1.694-1.693V.865zm13.662 0V49.31c0 1.217-1.146 2.299-2.569 2.299-1.352 0-2.505-1.082-2.505-2.299V.865zm10.282 0v32.136c0 .882-.74 1.693-1.686 1.693-.947 0-1.694-.81-1.694-1.693V.865zm13.806 0v32.136c0 .882-.748 1.693-1.694 1.693-.947 0-1.687-.81-1.687-1.693V.865zm12.58 0v32.136c0 .882-.811 1.693-1.686 1.693-.947 0-1.694-.81-1.694-1.693V.865zm12.652 0v32.136c0 .882-.74 1.693-1.686 1.693-.954 0-1.694-.81-1.694-1.693V.865zm15.769 0V55.8c0 1.9-1.494 3.387-3.387 3.387a3.39 3.39 0 01-3.38-3.387V.865zm9.471 0v32.136c0 .882-.747 1.693-1.693 1.693-.947 0-1.694-.81-1.694-1.693V.865zm13.798 0v32.136c0 .882-.747 1.693-1.693 1.693-.947 0-1.687-.81-1.687-1.693V.865zm12.581 0v32.136c0 .882-.81 1.693-1.686 1.693-.947 0-1.694-.81-1.694-1.693V.865zm12.652 0v32.136c0 .882-.74 1.693-1.686 1.693-.947 0-1.694-.81-1.694-1.693V.865zm14.076 0V49.31c0 1.217-1.082 2.299-2.505 2.299-1.423 0-2.569-1.082-2.569-2.299V.865zm10.282 0v32.136c0 .882-.747 1.693-1.693 1.693-.876 0-1.687-.81-1.687-1.693V.865zm13.869 0v32.136c0 .882-.811 1.693-1.693 1.693-.947 0-1.687-.81-1.687-1.693V.865zm12.517 0v32.136c0 .882-.747 1.693-1.694 1.693-.946 0-1.686-.81-1.686-1.693V.865zm12.716 0v32.136c0 .882-.81 1.693-1.686 1.693-.947 0-1.694-.81-1.694-1.693V.865zm14.076 0V55.8c0 1.9-1.488 3.387-3.38 3.387a3.35 3.35 0 01-3.388-3.387V.865zm9.4 0v32.136c0 .882-.74 1.693-1.687 1.693-.882 0-1.693-.81-1.693-1.693V.865zm13.869 0v32.136c0 .882-.811 1.693-1.687 1.693-.946 0-1.693-.81-1.693-1.693V.865zm12.517 0v32.136c0 .882-.74 1.693-1.687 1.693-.953 0-1.694-.81-1.694-1.693V.865zm12.723 0v32.136c0 .882-.811 1.693-1.694 1.693-.946 0-1.693-.81-1.693-1.693V.865zm13.192 0V49.31c0 1.217-1.08 2.299-2.504 2.299-1.423 0-2.569-1.082-2.569-2.299V.865zm10.283 0v32.136c0 .882-.747 1.693-1.693 1.693-.875 0-1.694-.81-1.694-1.693V.865zm13.869 0v32.136c0 .882-.81 1.693-1.693 1.693-.947 0-1.694-.81-1.694-1.693V.865zm12.518 0v32.136c0 .882-.748 1.693-1.694 1.693-.947 0-1.694-.81-1.694-1.693V.865zm12.715 0v32.136c0 .882-.81 1.693-1.693 1.693-.947 0-1.687-.81-1.687-1.693V.865zm14.481 0V55.8a3.35 3.35 0 01-3.387 3.387c-1.893 0-3.38-1.487-3.38-3.387V.865zm9.472 0v32.136c0 .882-.812 1.693-1.694 1.693-.946 0-1.693-.81-1.693-1.693V.865zm13.797 0v32.136c0 .882-.74 1.693-1.686 1.693-.954 0-1.694-.81-1.694-1.693V.865zm12.517 0v32.136c0 .882-.74 1.693-1.693 1.693-.876 0-1.687-.81-1.687-1.693V.865zm12.724 0v32.136c0 .882-.747 1.693-1.694 1.693-.946 0-1.694-.81-1.694-1.693V.865zm12.374 0V49.31c0 1.217-1.146 2.299-2.497 2.299-1.424 0-2.576-1.082-2.576-2.299V.865zm10.283 0v32.136c0 .882-.74 1.693-1.687 1.693-.946 0-1.693-.81-1.693-1.693V.865zm13.805 0v32.136c0 .882-.747 1.693-1.694 1.693-.875 0-1.686-.81-1.686-1.693V.865zm12.581 0v32.136c0 .882-.74 1.693-1.687 1.693-.946 0-1.693-.81-1.693-1.693V.865zm12.651 0v32.136c0 .882-.74 1.693-1.686 1.693-.882 0-1.693-.81-1.693-1.693V.865zm13.67 0V55.8a3.35 3.35 0 01-3.387 3.387 3.394 3.394 0 01-3.38-3.387V.865z"/></svg>