<svg xmlns="http://www.w3.org/2000/svg" width="824" height="198"><path fill="#fff" d="M105.205 112.81s3.164 1.011 3.78 1.033c0 0-2.66-2.021-3.033-2.9 0 0-.176 1.56-.747 1.868zm-.198 5.45s1.736 1.099 3.143 1.56c0 0-1.736-2.659-1.89-4.021 0-.022-1.077 1.516-1.253 2.461zm1.473-28.434c.417 1.45 1.757 2.241 1.757 2.241.022-.55 3.01-2.263 3.01-2.263-1.867-.901-4.767.022-4.767.022zm4.944 84.116s-1.473-2.856-4.593-3.098c0 0 2.593 3.582 2.483 4.46 0-.021 1.45-.021 2.11-1.362zM216.987 38.516c-.461-.747-2-.769-2-.769-.527 1.736-.11 3.494-.11 3.494.66-.637 2.11-2.725 2.11-2.725zm5.977-6.79s-3.01-.813-4.307 1.011c-1.296 1.846-3.076 4.131-3.076 4.131l2.241.857c0-.022 4.087-4.175 5.142-5.999zm-116.858 75.459s1.846 1.494 3.076 1.472c0 0-1.89-2.527-2-3.142 0 .022-1.12 1.055-1.076 1.67zm20.15-70.317s-1.78-2.285-3.076-4.13c-1.297-1.847-4.307-1.012-4.307-1.012 1.033 1.824 5.142 6 5.142 6zm-1.428 1.648s1.45 2.11 2.11 2.725c0 0 .417-1.78-.132-3.494.022-.022-1.517.022-1.978.77zm-2.901-2.153s-2.659-2.066-4.35-4.505c-1.693-2.46-4.593-.417-4.593-.417 2.087 1.362 7.097 6.328 7.097 6.328 1.033 0 1.846-1.406 1.846-1.406zm-3.142 1.999s-1.736.88-1.78 1.802c0 0 1.802 1.78 2.395 2.044 0 .022 0-2.461-.615-3.845zm-9.691 6.198s-2.35 3.669 2.593 3.757m11.361-10.307s-1.45.287-2.088.858c0 0 1.714 2.11 2.286 2.637.022.022.241-1.67-.198-3.494zm-11.207 140.855c.506-1.011.396-3.187.396-3.187-.857.791-2.417.857-2.417.857.747.308 2.021 2.33 2.021 2.33zM224.15 36.45s2.901 2.374 1.956 4.352c0 0 4.373.945 5.472-1.824 0 0 .747 1.67-.154 2.812 0 0 .791.66 1.472.55.681-.11.725 1.077.572 1.604 0 0 1.56.703 1.362 2.33 0 0 2.483-1.715 2.33-3.846-.155-2.132-1.407-3.362-1.407-3.362s2.944 1.428 2.878 4.24c-.065 2.813-2.812 4.286-2.812 4.286s3.362 3.362 5.032 4.504c0 0-4.11-.79-6.944-3.23 0 0 .483 8.328-1.23 10.35 0 0 1.362.022 2.021-.681.66-.703 2.571-1.89 1.978.175-.594 2.066-2.9 4.285-2.9 4.285s3.8-.659 5.185-2.329c1.384-1.67 2.769-1.055 1.34 1.319-1.45 2.35-3.34 4.13-3.34 4.13s3.978-.57 5.296-1.823c1.319-1.253 1.34-.044 1.385 1.055 0 0 1.362-5.428 3.23-7.801 0 0-1.67-1.12-2.681-3.142 0 0 2.615 1.604 3.823 1.648 0 0 3.12-3.187 5.538-4.307 0 0-4.33-1.89-6.153-4.966 0 0-.242 2.483.637 3.471 0 0-4.219-3.515-4.438-7.163-.22-3.67.022-4 .022-4l-9.208-6.636s-2.549-2.285-3.955-.878c-1.406 1.45-5.493 3.56-6.306 4.878z"/><path fill="#fff" d="M93.822 56.096c1.187-.044 3.824-1.648 3.824-1.648-1.01 2-2.68 3.142-2.68 3.142 1.867 2.373 3.23 7.8 3.23 7.8.043-1.098.065-2.307 1.384-1.054 1.318 1.252 5.295 1.824 5.295 1.824s-1.89-1.78-3.34-4.131c-1.45-2.352-.066-2.989 1.34-1.319 1.385 1.67 5.187 2.33 5.187 2.33s-2.308-2.22-2.9-4.286c-.594-2.065 1.318-.879 1.977-.175.659.703 2.021.68 2.021.68-1.736-2.065-1.252-10.393-1.252-10.393-2.813 2.44-6.944 3.23-6.944 3.23 1.67-1.12 5.032-4.504 5.032-4.504s-2.747-1.473-2.813-4.285c-.065-2.813 2.879-4.241 2.879-4.241s-1.23 1.23-1.406 3.362c-.176 2.131 2.329 3.845 2.329 3.845-.198-1.626 1.362-2.33 1.362-2.33-.153-.526-.11-1.713.572-1.603.68.11 1.472-.55 1.472-.55-.901-1.142-.154-2.812-.154-2.812 1.077 2.768 5.472 1.824 5.472 1.824-.945-2 1.955-4.351 1.955-4.351-.813-1.319-4.9-3.428-6.284-4.835-1.407-1.406-3.956.88-3.956.88l-9.207 6.636s.242.351.022 3.999-4.438 7.163-4.438 7.163c.878-.988.637-3.472.637-3.472-1.824 3.077-6.153 4.967-6.153 4.967 2.417 1.12 5.537 4.307 5.537 4.307zm182.912-34.807c4.417-1.56 8.812-1.121 5.955 7.053-2.878 8.175-13.206 5.274-13.206 5.274-.176 4.549 3.252 4.988 3.252 4.988-1.274-.857-.923-3.604-.923-3.604 4.725 1.868 14.13-1.78 15.887-6.614 1.758-4.834-.549-8.833-.549-8.833 5.274.945 7.691-1.209 7.691-1.209-1.033-.198-2.439-1.384-2.439-1.384 2.703-.33 6.394-2.286 6.394-2.286-1.01.044-1.977-1.296-1.977-1.296 2.373-.308 5.91-2.725 5.91-2.725-3.273.462-8.965-2.505-8.965-2.505-2.637 8.065-12.635 8.087-12.635 8.087-5.032 5.405-8.701-1.604-8.701-1.604s-4.68-.396-6.505 2.527c-1.824 2.9 1.099 2.11 1.978.944.857-1.164 3.801-1.845 3.801-1.845s-2.614 2.834-3.955 3.67c-1.34.856-2.461.878-2.461.878-.352 2.505 2.483 5.823 2.483 5.823s7.669-4.9 8.965-5.34zm-41.75 149.533c-3.12.264-4.593 3.098-4.593 3.098.66 1.34 2.088 1.363 2.088 1.363-.088-.88 2.505-4.46 2.505-4.46zm-5.01 8.043s1.296-2.022 2.021-2.33c0 0-1.56-.088-2.417-.857 0 0-.132 2.176.396 3.187zM280.03 15.246s-2.307-.33-5.295-.308m18.941-8.152c-.307-2.044-3.428-6.24-3.428-6.24-.57 2.746-3.12 4.768-3.12 4.768 1.89 4.24 6.548 1.472 6.548 1.472z"/><path fill="#fff" d="M278.14 13.51c3.539.198 9.691.55 12.372-3.428 0 0-4.197-.066-4.878-2.989 0 0-1.824 2.681-4.79 2.901-2.945.22-6.197 1.362-8.153 3.823.022 0 1.934-.527 5.45-.307zm-45.398 31.05c-1.23 1.076-2.593 3.757-2.593 3.757m-7.119-9.955c-.637 1.385-.615 3.868-.615 3.868.593-.286 2.395-2.044 2.395-2.044-.044-.945-1.78-1.823-1.78-1.823zm-4.483 3.165c.571-.528 2.285-2.637 2.285-2.637-.615-.571-2.087-.857-2.087-.857-.418 1.802-.198 3.494-.198 3.494zm1.341-5.164s.813 1.428 1.845 1.384c0 0 5.01-4.966 7.098-6.328 0 0-2.879-2.022-4.593.417-1.692 2.461-4.35 4.527-4.35 4.527zm14.744 69.174c-.11.615-2 3.142-2 3.142 1.231.022 3.077-1.472 3.077-1.472.044-.637-1.077-1.67-1.077-1.67zm1.231 5.406c-.374.9-3.033 2.9-3.033 2.9.616-.022 3.78-1.032 3.78-1.032-.55-.308-.747-1.868-.747-1.868zm-.308 4.834c-.154 1.362-1.89 4.021-1.89 4.021 1.407-.461 3.143-1.56 3.143-1.56-.176-.923-1.253-2.46-1.253-2.46zm-.22-25.951s-2.9-.923-4.768-.022c0 0 2.988 1.736 3.01 2.263 0 0 1.319-.791 1.758-2.241zm61 100.355c.132 3.406 2.176 3.67 2.176 3.67-.374-.66.132-3.626.132-3.626-.835-.505-2.308-.044-2.308-.044zm-54.122-11.931c-1.714-.264-3.076 1.911-3.076 1.911-.374 1.472.79 5.34.79 5.34 3.275-1.23 4-6.966 2.286-7.252zm11.251 2.065c1.934 1.296 2.263 3.494 2.263 3.494 3.033-2.923.022-6.131.022-6.131-.835.352-2.285 2.637-2.285 2.637zm-19.139-3.208c-1.67.659-1.033 4.13-1.033 4.13m-125.802-4.13c-1.67-.66-1.692 4.285 1.033 4.13m-5.845-1.076s-1.362-2.175-3.076-1.912c-1.714.286-.99 6.021 2.285 7.252 0 0 1.165-3.868.791-5.34z"/><path fill="#fff" d="M237.313 181.677s-2.857.396-4.46 1.956c-.902-.462-1.693-1.406-1.956-2.989H111.095c-.265 1.583-1.056 2.55-1.957 2.989-1.582-1.56-4.46-1.956-4.46-1.956s.22 3.143-2.088 6.24v3.627h136.811v-3.626c-2.308-3.098-2.088-6.24-2.088-6.24zm59.11 5.648c.967.307 2.725 1.604 2.725 1.604-.066-1.846 2.79-5.494 2.79-5.494-4.416.44-5.515 3.89-5.515 3.89zm14.349 4.219c-1.736-.88-2.417 1.186-2.417 1.186.088.813 1.406 4.593 1.406 4.593 1.187-.88 2.747-4.878 1.011-5.78zm12.525-1.956c.506.461.857 4.878.857 4.878s3.12-2.373 2.154-4.439c-.945-2.087-3.01-.44-3.01-.44zm-71.943-88.929c-1.955.417-6.042 2.417-6.042 2.417 3.56 5.516.483 10.833.483 10.833 9.998-3.867 5.56-13.25 5.56-13.25zm34.61 28.654c-5.076-17.184-12.13-11.822-12.13-11.822m30.104 73.855c-1.538-1.165-2.724-.176-2.724-.176-.286 3.428 2.9 4.46 2.9 4.46-.417-1.625 1.363-3.12-.176-4.284zm-264.062-7.911s2.857 3.648 2.79 5.494c0 0 1.759-1.297 2.726-1.604 0 0-1.099-3.45-5.516-3.89zm-8.811 8.109c-1.736.879-.176 4.9 1.01 5.757 0 0 1.297-3.78 1.407-4.593-.022.022-.681-2.043-2.417-1.164zm-15.558-1.539c-.967 2.088 2.153 4.44 2.153 4.44s.374-4.418.88-4.88c-.023.023-2.066-1.625-3.033.44zm22.37 1.341c-1.539 1.164.241 2.659-.154 4.285 0 0 3.186-1.033 2.9-4.461 0 0-1.208-1.01-2.746.176zm5.185-176.694s3.67 1.956 6.395 2.286c0 0-1.406 1.186-2.44 1.384 0 0 2.418 2.132 7.692 1.209 0 0-2.308 3.999-.55 8.833 1.758 4.835 11.163 8.482 15.888 6.615 0 0 .351 2.746-.923 3.603 0 0 3.428-.44 3.252-4.988 0 0-10.35 2.9-13.207-5.274-2.878-8.174 1.517-8.613 5.955-7.053 1.297.461 9.01 5.34 9.01 5.34s2.856-3.297 2.483-5.824c0 0-1.143-.044-2.461-.879-1.34-.835-3.956-3.67-3.956-3.67s2.923.682 3.802 1.846c.857 1.165 3.801 1.956 1.978-.944-1.824-2.901-6.505-2.527-6.505-2.527s-3.67 7.01-8.701 1.604c0 0-9.999-.044-12.636-8.087 0 0-5.69 2.967-8.965 2.505 0 0 3.538 2.417 5.911 2.725-.044 0-1.01 1.34-2.022 1.297zm24.018.286c-2.988-.022-5.296.308-5.296.308m24.282 162.41s-3.01 3.208.022 6.13c0 0 .33-2.197 2.263-3.493 0 .022-1.45-2.263-2.285-2.637zM54.665 5.314s-2.527-2.022-3.12-4.769c0 0-3.12 4.197-3.429 6.24.022 0 4.68 2.77 6.549-1.471zM43.172 190.247s.506 2.945.132 3.626c0 0 2.044-.264 2.176-3.67.022-.022-1.473-.483-2.308.044zm47.288-89.588s-4.438 9.383 5.56 13.228c0 0-3.076-5.295.483-10.833 0 .022-4.065-1.978-6.043-2.395zM56.115 129.27s5.384-9.428 12.13-11.823m35.465-4.68s1.341-.967 1.385-2.33c0 0-2.241-2-3.252-4.35 0 0 .308 2.592.022 3.274-.308.659-.044 3.12 1.846 3.406z"/><path fill="#fff" d="M63.674 13.51c3.538-.22 5.45.307 5.45.307-1.956-2.46-5.208-3.603-8.153-3.823-2.944-.22-4.79-2.9-4.79-2.9-.681 2.922-4.878 2.988-4.878 2.988 2.68 3.955 8.833 3.626 12.371 3.428zm173.046 96.905c.044 1.363 1.384 2.33 1.384 2.33 1.89-.264 2.154-2.747 1.846-3.406-.308-.682.022-3.274.022-3.274-1.011 2.373-3.252 4.35-3.252 4.35zm152.324-31.796v.11c-.22 17.184-6.988 23.358-15.162 23.358-8.768 0-15.756-5.45-15.756-23.358v-4.966c0-16.964 6.395-22.414 14.81-22.414 8.659 0 16.371 4.988 16.371 23.117v4.263zm10.68-2.483v.461c-.352-20.26-8.417-30.807-24.172-30.807-7.23 0-15.404 3.45-20.854 12.217h-.944c0-41.487 40.783-17.205 41.377-44.695V10.94l-2.615-.352c-1.538 4.373-6.988 6.043-13.866 7.34-27.511 5.45-30.588 23.71-30.588 51.683v3.318c0 23.6 10.438 35.092 25.842 35.092 13.514-.241 25.138-11.624 25.841-31.884zm38.388 9.207v.11c-.242 6.9-7.12 14.107-15.646 14.349-7.097-.22-9.119-4.966-9.119-9.361-.11-5.67 1.67-9.23 4.747-10.9 5.8-3.075 14.92-3.185 18.128-3.185 1.187 0 1.912.131 2.022.241v9.01zm16.612 16.37h-1.428c-5.56 0-5.691-4.987-5.691-10.789V62.49c0-13.514-6.395-17.074-17.426-17.074-17.425 0-23.82 6.526-23.82 11.844 0 3.56 1.407 5.713 5.45 6.175 2.373 0 4.021-.593 4.856-1.78.22-4.131 1.78-10.657 11.25-10.657 6.637 0 10.197 2.702 10.197 13.733v5.692c-6.065.241-14.7-.484-25.732 3.911-5.691 2.263-8.767 7.23-9.36 14.942 0 9.603 4.856 17.777 15.645 18.02 7.58-.11 13.997-3.319 19.205-9.604h.484c.483 5.582 3.076 8.416 7.47 8.416.374 0 .836 0 1.32-.11h7.58v-4.262z"/><path fill="#fff" d="M487.84 62.116v.242c-.243 10.086-5.824 10.79-9.494 10.79-.373 0-.725-.11-1.076-.11h-10.658V56.667c0-2.725 1.187-4.153 3.077-4.153.373 0 .725.11 1.076.11h7.208c3.208 0 9.36.483 9.844 9.492zm3.032 26.677v.11c-.242 9.01-6.285 11.492-13.515 11.492h-6.504c-3.911 0-4.395-1.78-4.395-4.504V78.223h8.658c.593-.11 1.187-.11 1.78-.11 5.23 0 12.92 1.077 13.756 10.79zm10.547.55c-.703-11.735-10.306-13.734-15.404-13.976v-.703c4.725-1.055 11.712-4.967 12.196-13.976-.242-11.734-9.12-13.975-21.095-13.975h-27.138v3.56l2.615.703c4.021 1.186 4.504 3.318 4.504 6.746v37.465c0 5.89-.11 6.505-5.251 6.505l-1.846.725v3.56h28.324c10.306 0 22.524-3.209 23.227-16.13zm39.443-4v.11c-.22 6.9-7.12 14.107-15.645 14.349-7.098-.22-9.12-4.966-9.12-9.361-.11-5.67 1.67-9.23 4.747-10.9 5.801-3.075 14.92-3.185 18.129-3.185 1.186 0 1.911.131 2.021.241v9.01zm16.613 16.37h-1.407c-4.614-.241-5.69-4.987-5.69-10.789V62.49c0-13.514-6.395-17.074-17.426-17.074-17.426 0-23.82 6.526-23.82 11.844 0 3.56 1.428 5.713 5.45 6.175 2.373 0 4.02-.593 4.856-1.78.22-4.131 1.78-10.657 11.25-10.657 6.637 0 10.196 2.702 10.196 13.733v5.692c-6.064.241-14.7-.484-25.731 3.911-5.692 2.263-8.768 7.23-9.361 14.942 0 9.603 4.856 17.777 15.645 18.02 7.581-.11 13.998-3.319 19.206-9.604h.461c.484 5.582 3.076 8.416 7.471 8.416.374 0 .835 0 1.319-.11h7.58v-4.262z"/><path fill="#fff" d="M599.313 75.674v.11c-.483 22.062-8.174 26.435-15.052 26.435-4.966 0-11.734-1.318-13.865-6.878v-23.71c.351-12.327 5.098-18.722 14.107-19.205 12.569.703 14.942 12.679 14.942 23.468zm10.328-1.098c0-17.426-7.471-28.918-21.93-29.16-7.23.132-12.92 3.208-17.074 9.251h-.835v-7.823l-15.887 1.89v3.318l2.131.352c3.209.593 4.857 3.208 4.857 7.823 0 .615-.11 1.186-.11 1.911v60.1c0 4.13-.462 7.449-4.615 8.525l-2.373.594v3.56h25.732v-3.56l-2.835-.594c-5.933-1.164-6.284-4.614-6.284-11.25V104.46c2.24 2 6.504 3.077 12.679 3.428 14.327 0 26.303-9.119 26.786-33.422zm48.607 18.634l2.966 2.834c-6.768 9.361-15.052 11.844-22.062 11.844-16.942 0-24.896-13.272-24.896-29.269.483-12.68 3.56-21.447 9.25-26.303 5.692-4.856 11.142-7.12 16.833-7.12 10.9 0 19.447 5.098 19.447 13.976 0 2.857-1.428 6.636-6.988 6.878-3.56-.484-5.45-2.022-5.581-4.747.483-2.021.835-3.911.945-5.45-.484-3.8-3.077-5.097-8.175-5.097-7.36 0-14.81 6.394-15.052 25.248.242 18.502 7.713 25.248 16.48 25.248 6.747-.351 12.438-2.966 17.075-8.064v-.132zm60.187 9.47l.175 3.56-2.856.11c-1.648.22-3.78.352-6.285.352-6.987 0-9.844-6.527-12.679-13.646l-2.373-5.208c-3.208-6.988-4.746-10.064-11.25-10.064h-4.154v15.294c-.11.593-.11 1.077-.11 1.538 0 4.021 1.78 6.285 5.098 7.12l2.374.593v3.428h-24.062v-3.428l2.373-.593c4.153-1.077 4.615-2.967 4.615-6.988V57.392c0-3.801-.352-6.043-4.615-7.12l-2.373-.593v-3.318h24.062v3.318l-2.374.593c-3.45.835-5.098 3.077-5.098 6.746 0 .594 0 1.187.11 1.78v13.756h4.153c4.153-.242 6.878-2.263 8.658-6.043l2.373-5.208c3.209-7.69 6.527-15.294 14.591-15.645 2.373 0 6.175 1.186 6.395 5.933-.484 3.67-1.912 5.801-4.395 6.284-2.022-.593-4.153-1.076-6.175-1.296-2.022 0-3.208 1.428-4.373 4.153l-2.856 6.636c-1.648 3.67-3.78 5.933-5.933 6.878v.352c4.153.483 8.9 2.373 13.624 11.272l3.076 5.802c3.45 6.636 4.658 10.657 9.383 11.03"/><path fill="#fff" d="M778.292 102.439v3.56h-23.468v-3.56l2.615-.725c4.02-1.077 4.614-2.857 4.504-6.636V63.919l-27.028 32.938v.945c0 .242-.11.462-.11.594 0 1.538.352 2.724 3.56 3.56l2.593.725v3.56h-22.523v-3.56l2.615-.726c4.02-1.054 4.614-2.834 4.504-6.636V57.744c.11-3.802-.483-5.34-4.504-6.527l-2.615-.725v-3.56h23.468v3.56l-2.615.725c-4.153 1.187-4.636 2.725-4.505 6.527v30.829l27.028-32.829v-1.406c0-1.055-.11-2.242-3.45-3.187l-2.614-.725v-3.56h22.523v3.56l-2.615.725c-4.153 1.187-4.614 2.857-4.505 6.637v37.575c-.11 3.912.352 5.45 4.505 6.526l2.615.704v-.154z"/><path fill="#fff" d="M813.604 64.731c0 4.263-1.538 4.747-3.911 4.747h-21.578c.725-10.416 4.153-18.48 14.107-18.48 5.581 0 11.14 4.746 11.382 13.514zm10.416 1.912a25.463 25.463 0 010 .242zm0 .198c-.262-14.429-10.317-21.293-21.337-21.293-12.679 0-25.468 8.768-26.193 32.346 0 12.943 4.856 29.181 24.26 30.104 7.01 0 14.239-1.78 22.523-11.976l-2.835-2.834c-4.373 5.098-10.086 7.713-16.832 8.064-10.416-.615-15.755-8.658-16.107-24.193v-1.89h30.588c4.104-.109 5.89-2.899 5.932-8.328zm-434.8 82.381v.11c-.242 17.14-6.746 23.292-15.14 23.292-8.746 0-15.734-5.428-15.734-23.293v-4.372c0-18.217 6.614-23.535 14.547-23.535 8.746 0 16.327 4.154 16.327 23.315v4.373zm10.283-2.923c-.22-21.403-10.525-30.764-25.775-30.764-14.437 0-25.424 9.823-25.666 30.874.22 21.996 10.394 31.818 25.776 31.818 13.734 0 25.336-9.47 25.797-31.708z"/><path fill="#fff" d="M451.604 172.536v3.78l-2.483.153c-1.648.22-3.78.572-6.263.572-6.988 0-9.822-6.505-12.657-13.602l-2.373-5.208c-3.186-6.988-4.724-10.064-11.229-10.064h-4.153v15.25c-.11.593-.11 1.076-.11 1.538 0 4.021 1.78 6.263 5.098 7.098l2.373.593v3.428H395.79v-3.428l2.373-.593c4.131-1.077 4.615-2.967 4.615-6.988v-37.246c0-3.78-.352-6.043-4.615-7.098l-2.373-.593v-3.296h24.017v3.296l-2.373.593c-3.428.835-5.098 3.077-5.098 6.746 0 .594 0 1.187.11 1.78v13.734h4.153c4.131-.242 6.856-2.263 8.636-6.043l2.351-5.208c3.186-7.69 6.505-15.25 14.547-15.623 2.373 0 6.153 1.186 6.395 5.91-.484 3.67-1.89 5.802-4.373 6.263-2.022-.593-4.131-1.076-6.153-1.296-2.022 0-3.208 1.428-4.373 4.153l-2.835 6.614c-1.648 3.67-3.78 5.911-5.91 6.878v.352c4.13.483 8.855 2.373 13.601 11.228l3.077 5.801c3.428 6.637 4.614 10.262 9.339 10.614"/><path fill="#fff" d="M509.22 172.778v3.538h-23.425v-3.538l2.593-.594c4.132-.944 4.483-2.966 4.483-6.636V148.41h-25.995v17.139c0 3.67.242 5.692 4.483 6.636l2.614.594v3.538H450.55v-3.538l2.593-.594c4.153-.944 4.505-3.186 4.505-6.746v-37.62c0-3.67-.352-5.56-4.505-6.504l-2.593-.594v-3.56h23.424v3.56l-2.614.594c-4.132.944-4.483 2.834-4.483 6.504v14.92h26.017v-14.92c0-3.67-.351-5.56-4.483-6.504l-2.592-.594v-3.56h23.424v3.56l-2.593.594c-4.153.944-4.505 2.834-4.505 6.504v37.619c0 3.56.352 5.802 4.505 6.746l2.57.594v-.132z"/><path fill="#fff" d="M542.664 155.77v.11c-.241 6.856-7.097 14.063-15.623 14.305-7.098-.22-9.097-4.966-9.097-9.34-.132-5.668 1.648-9.228 4.724-10.876 5.801-3.077 14.898-3.187 18.107-3.187 1.164 0 1.89.11 2 .22v8.988zm16.547 16.305h-1.429c-4.614-.242-5.669-4.967-5.669-10.768v-28.39c0-13.47-6.394-17.03-17.381-17.03-17.404 0-23.776 6.504-23.776 11.822 0 3.56 1.406 5.67 5.427 6.153 2.374 0 4.022-.594 4.857-1.78.241-4.153 1.78-10.658 11.228-10.658 6.637 0 10.174 2.725 10.174 13.734v5.691c-6.043.22-14.656-.483-25.665 3.89-5.67 2.241-8.746 7.207-9.34 14.898 0 9.58 4.835 17.755 15.602 17.975 7.56-.11 13.954-3.318 19.162-9.58h.483c.484 5.559 3.076 8.393 7.45 8.393.35 0 .812 0 1.296-.11h7.58zM39.92 40.955c.088.066.176.11.264.154"/><path fill="#fff" d="M84.242 98.791s-2.527 7.537-10.306 10.855c0 0 4.615-2.834 6.504-7.735 0 0-2.768 1.319-6.328 1.187-3.538-.132-5.142-.879-2.769-4.197 0 0 .703-2.637-.813-1.868-1.538.77-4.021.044-4.021.044s1.516-.417 2.439-1.472c0 0-.66-.374-1.384-1.275 0 0 2.065-.68 2.834-1.252 0 0-4.307-3.428-5.34-6.417 0 0 1.517-.68 2.527-1.736 0 0-1.274-3.032-4.065-4.24-.659 11.646-7.866 12.59-7.866 12.59s3.23-1.032 4.702-5.91c1.78-5.89-.044-7.757 2.593-14.393 0 0-2.835-4.022-3.736-7.384 0 0 6.35 10.13 14.481 13.668 0 0 3.56-1.648 2.571-5.01-.989-3.362-2.549-7.076-1.714-8.768 0 0 .616 1.56 2 3.736 1.362 2.175 4.505 9.537-3.186 12.327 0 0-5.252-2.922-8.438-6.965 0 0-1.297 2.593-1.34 4.043 0 0 4.482 2.988 6.306 6.724 0 0-1.692 1.648-2.813 2.022 0 0 2.066 4.087 4.812 5.559 0 0-.395 1.34-1.362 2.175 0 0 .857 2 3.977-1.472 0 0-.769 2.351-1.736 3.34-.967.99-.571 1.604 1.429.484s3.933-2.483 3.933-2.483-2.153 2.9-4.065 4.109c-1.912 1.208-2.835 2.527-1.538 2.593 1.23.044 7.91.22 10.591-4.175.088-.132.198-.264.242-.44 3.296 0 6.13 2.022 6.13 2.022s-2.812-.33-5.251-.286zM61.806 40.472c-9.624-.923-13.294-11.866-13.294-11.866m3.362 28.17c-9.075-3.295-10.02-8.437-10.02-8.437m24.083 5.91c2.747 2.374 6.746 4.791 6.746 4.791s-5.713-1.912-8.899-5.12c-3.164-3.186-6.746-4.79-6.746-4.79 2.153.33 6.153 2.747 8.9 5.12zM39.92 40.978c-1.45-.966-8.24-6.196-1.78-18.106m69.68 76.272c-.286-1.385-.637-4.461.66-5.538 0 0-3.56-2.065-2.923-3.735 0 0-7.01 1.78-13.712-4.044-6.702-5.823-7.713-9.492-7.713-9.492s9.47 13.887 20.678 12.041c0 0 3.12-4.658 1.252-8.921-1.89-4.263-14.613-10.108-16.788-15.755 0 0 6.372 5.8 9.625 6.965 0 0-.857-1.164-3.165-6.702-2.285-5.537-4.526-9.712-10.46-11.866-5.932-2.153-8.393-6.57-8.393-6.57s4.724 4.373 8.24 4.285c0 0-.703-5.603-8.614-6.68-7.91-1.099-13.822-.857-15.865-7.186 0 0-10.328-1.23-8.922-14.37 0 0-5.933 1.406-12.525-8.834 0 0-4.9 3.142-6.504 7.515-1.604 4.373-4.944 11.492-8.35 13.756 0 0 2.636-.066 4.724-1.187 0 0-9.383 7.823-3.274 26.698 0 0 .769-5.317 1.758-6.548 0 0-1.187 15.382 1.23 21.6 0 0 2.681-5.778 4.307-8.108 0 0-.066 12.79 2.044 17.8 0 0 3.494-8.9 4.988-10.285 0 0 .373 10.416 2.065 17.206 0 0 2.77-7.735 6.11-10.503 0 0 7.097 3.933 6.218 13.623-.879 9.691-13.998 13.954-13.998 13.954s6.966-3.824 9.164-8.174c2.219-4.351 1.845-9.581-.66-15.47 0 0 1.297 13.8-9.954 23.139-11.25 9.338-11.954 18.634-12.173 21.578-.22 2.945-5.868 8.065-10.482 3.692-4.615-4.373-2.483-12.372 6.482-18.041 8.966-5.691 13.602-11.075 13.25-20.172-.329-9.097-14.019-16.788-14.766-30.434 0 0-6.57 8.262-.088 14.305 6.482 6.043 12.657 11.053 13.03 13.338 0 0-3.559-5.164-8.503-7.471-4.944-2.307-6.043-2.263-6.043-2.263s-.242 3.911 1.956 4.768c2.175.857 9.339.857 11.712 5.56 0 0-3.01-3.956-10.24-4.044 0 0-.022 4.856 4.636 3.846 4.637-1.011 5.318 1.472 5.318 1.472s-3.823-2.351-6.504.615c-2.659 2.967 1.186 4.988 2.46 2.725 1.275-2.263 4-2.395 3.407.132-.615 2.527-1.824 7.515-12.02 13.36s-11.734 14.898-11.8 17.03c-.088 2.131-1.714 4.702-3.845 2.747-2.132-1.956.44-5.01.44-5.01s-3.824-.462-5.143 3.076c-1.318 3.538 6.658 3.911 6.658 3.911s-2.505 3.23-.813 5.516c1.714 2.285 4.593.44 4.593.44s-3.736-2.44-1.956-4.418c1.78-1.977 2.615.704 3.01 1.297.396.615 4.088 6.724 14.196 3.01 0 0-1.23 5.582-1.143 9.757.088 4.175-2.835 9.778-9.339 6.043 0 0-1.077 5.757-.505 11.053 0 0-2.11 4.021-6.944 3.054 0 0 2.79 2.571 6.416 1.34 0 0-2 3.077-5.207 2.528 0 0 2.483 1.801 4.988 1.208 0 0-1.648 3.098-4.11 2.9 0 0 1.956 2.55 5.714 2 0 0-.528 2.461-.44 5.01.066 2.571-.593 4.571-.593 4.571s4.483-1.12 4.812 1.209c.33 2.307.132 3.428.132 3.428s4.922-3.824 5.757-3.275c.835.55 3.143 4.813 3.143 4.813s2.24-5.362 3.471-4.131c1.231 1.23 1.627 1.933 1.627 1.933s.922-1.933-.308-3.164c-1.23-1.23-2.527-2.835-1.846-3.142.703-.308 3.824 2.46 3.868 3.89.022 1.45.241 2.834.241 2.834s2.835-5.01 5.604-1.67c0 0 .066-3.824-2.461-7.252 0 0-7.625 1.34-10.548-4.834-2.923-6.175 1.56-16.568 7.471-19.49 5.911-2.923 16.415-8.241 18.502-27.425 2.088-19.183 20.107-19.469 23.227-20.721 3.12-1.253 8.064-2.659 12.13-11.47 0 0 8.965 2.505 9.075 4.197.11 1.714-.044 12.349 4.636 14.568 0 0 .682-3.23 3.78-4.043 0 0-7.779 1.516-5.78-6.24 0 0-1.845-2.33-.724-4.79 0 0 2.131.878 2.285 2.482.176 1.604 2.022 3.714 3.714 3.89 0 0-2.088-2.022-.308-3.648 1.758-1.626 1.648-1.648 1.648-1.648s.286-3.56 0-4.944zm-63.263 51.682s2.505-3.209 3.78-10.086"/><path fill="#fff" d="M76.902 128.083c8.438 2.24 5.34 8.833 5.34 8.833m-15.91 18.15c.001 0 2.99-1.032 3.363-4.987 0 0 .879 3.78-1.318 4.944 0 0 1.801 3.362 3.252 4.109-.003-.001-2.573-1.232-5.296-4.065zm30.545 13.998c-5.89-.571-6.746-2.175-6.746-2.175 1.01.154 2.747-.242 2.747-.242s-6.944-5.384-11.141-11.668c-4.197-6.285 4.373-13.69 4.373-13.69s2.11-7.537-2.77-13.866c-4.877-6.328-17.27-6.834-17.27-6.834-3.626 1.407-10.482 11.273-10.482 11.273 6.746 1.78 8.877 6.394 8.877 6.394-4.109-3.735-9.405-3.515-9.405-3.515-.615 2.79-.527 4.922-.527 4.922 8.921.769 10.503 3.977 11.295 5.362.79 1.384 2 5.867-2.11 6.306-4.11.44 1.45 6.614 3.78 8.152 2.329 1.539-.835 6.35-.835 6.35s.879-.724 3.142-1.933c2.263-1.186-1.01 4.22-1.01 4.22s1.625-.374 3.559-1.583c1.912-1.208-.352 4.505-.352 4.505 3.824.066 5.67-3.714 5.67-3.714 1.428.66 6.196 4.922 6.196 4.922-1.472 2.923-.417 6.285-.417 6.285s.637-1.34 2.043-2.044c1.385-.703 4.197 4.153 4.197 4.153 1.89-.527 4.132-3.076 4.132-3.076-.044 3.406 3.999 4.57 3.999 4.57-1.363-6.877 2.703-6.13 3.757-4.965 1.055 1.142 2.308 4.087 2.55 2.307.241-1.78-1.451-4.33-1.451-4.33 1.099.374 2.395 1.957 2.395 1.957.637-1.077 3.23-1.1 3.23-1.1-.175-3.669-5.537-6.372-11.426-6.943zm124.329-1.538H120.785V51.086h100.421zm10.921-118.067zm-3.911.132c.285-1.34 1.296-4.592 3.428-5.823-1.099-.22-1.89-.571-2.461-1.494-1.802.593-2.352.264-3.802-.33-1.56 1.846-3.428 2.154-3.428 2.154s-1.186-1.45-1.318-2.791c-.77.637-1.626 1.494-2.066 2.417-.571-.44-1.472-1.252-1.89-2.439-1.142 1.253-1.692 2.79-1.692 2.79-1.12-1.076-1.801-3.91-1.801-3.91h-84.403s-.681 2.834-1.802 3.91c0 0-.571-1.515-1.692-2.79-.417 1.187-1.318 2-1.89 2.44-.439-.924-1.274-1.78-2.043-2.418-.132 1.34-1.318 2.79-1.318 2.79s-1.868-.285-3.428-2.153c-1.45.594-2 .923-3.802.33-.55.923-1.362 1.274-2.461 1.494 2.131 1.23 3.142 4.483 3.428 5.823-1.736.616-3.911-.132-3.911-.132v37.95c2.658.22 4.372 1.955 4.372 1.955s-3.186 1.758-4.372 4.263v75.767c5.23 3.89 4.504 9.053 4.504 9.053h113.254s-.725-5.142 4.505-9.053V93.627c-1.186-2.505-4.373-4.263-4.373-4.263s1.714-1.736 4.373-1.955v-37.95c-.005.002-2.177.747-3.911.132zm19.776 27.732c-3.054 2.768-3.735 7.053-1.054 8.306l-2.77 1.384s-2.306-2.307-1.383-5.318c.9-3.01 8.723-7.91 10.305-11.119 0 0-2.065 4-5.098 6.747zm54.386-36.368c-.176.11-.263.154-.263.154"/><path fill="#fff" d="M274.735 84.925c.989 1.055 2.527 1.736 2.527 1.736-1.055 2.967-5.34 6.417-5.34 6.417.77.593 2.835 1.252 2.835 1.252-.725.923-1.385 1.275-1.385 1.275.923 1.055 2.44 1.472 2.44 1.472s-2.506.703-4.022-.044c-1.538-.769-.813 1.868-.813 1.868 2.373 3.318.77 4.065-2.768 4.197-3.538.132-6.307-1.187-6.307-1.187 1.89 4.9 6.504 7.735 6.504 7.735-7.757-3.318-10.306-10.855-10.306-10.855-2.439-.044-5.23.242-5.23.242s2.835-2.022 6.131-2.022c.044.176.154.308.242.44 2.68 4.395 9.34 4.219 10.592 4.175 1.274-.044.373-1.385-1.539-2.593-1.911-1.209-4.087-4.11-4.087-4.11s1.934 1.385 3.934 2.484c2 1.12 2.395.505 1.428-.484-.967-.988-1.736-3.34-1.736-3.34 3.12 3.472 3.977 1.473 3.977 1.473-.967-.814-1.362-2.176-1.362-2.176 2.747-1.472 4.812-5.56 4.812-5.56-1.12-.373-2.813-2.021-2.813-2.021 1.824-3.736 6.307-6.724 6.307-6.724-.066-1.45-1.34-4.043-1.34-4.043-3.165 4.043-8.438 6.966-8.438 6.966-7.691-2.77-4.549-10.13-3.187-12.328 1.363-2.175 2-3.736 2-3.736.835 1.67-.725 5.406-1.714 8.768-.989 3.362 2.571 5.01 2.571 5.01 8.13-3.538 14.48-13.668 14.48-13.668-.9 3.362-3.735 7.384-3.735 7.384 2.637 6.636.813 8.482 2.593 14.393 1.472 4.878 4.703 5.91 4.703 5.91s-7.23-.9-7.889-12.546c-2.79 1.208-4.065 4.24-4.065 4.24zm1.626-30.675c2.747-2.373 6.746-4.79 8.9-5.12 0 0-3.582 1.604-6.747 4.79-3.164 3.186-8.9 5.12-8.9 5.12s4-2.395 6.747-4.79zm17.447-25.644c-1.186 13.8-13.294 11.866-13.294 11.866m19.952 7.867c.154 7.273-10.02 8.438-10.02 8.438m13.712-33.906s10.592 10.79-1.78 18.106m39.29 87.589c-1.319-3.538-5.142-3.208-5.142-3.208s2.593 3.054.44 5.01c-2.154 1.956-3.78-.615-3.846-2.747-.088-2.131-1.626-11.185-11.8-17.03-10.196-5.845-11.405-10.811-12.02-13.36-.615-2.527 2.131-2.373 3.406-.132 1.274 2.241 5.12.242 2.461-2.725-2.68-2.966-6.504-.615-6.504-.615s.68-2.505 5.317-1.472c4.637 1.01 4.637-3.846 4.637-3.846-7.252.11-10.24 4.044-10.24 4.044 2.373-4.68 9.537-4.703 11.712-5.56 2.176-.857 1.956-4.768 1.956-4.768s-1.099-.044-6.043 2.263-8.504 7.471-8.504 7.471c.374-2.285 6.548-7.295 13.03-13.338 6.483-6.043-.087-14.305-.087-14.305-.725 13.668-14.415 21.337-14.767 30.434-.33 9.097 4.307 14.503 13.25 20.172 8.966 5.691 11.097 13.668 6.483 18.04-4.615 4.374-10.262-.746-10.482-3.69-.22-2.945-.923-12.24-12.173-21.58-11.273-9.338-9.955-23.138-9.955-23.138-2.505 5.89-2.878 11.14-.659 15.47 2.22 4.35 9.163 8.174 9.163 8.174s-13.118-4.285-13.997-13.953c-.879-9.691 6.219-13.624 6.219-13.624 3.34 2.768 6.108 10.503 6.108 10.503 1.692-6.79 2.066-17.205 2.066-17.205 1.494 1.384 4.988 10.283 4.988 10.283 2.11-5.032 2.066-17.799 2.066-17.799 1.626 2.33 4.307 8.109 4.307 8.109 2.395-6.219 1.23-21.6 1.23-21.6.989 1.23 1.758 6.548 1.758 6.548 6.109-18.876-3.274-26.699-3.274-26.699 2.087 1.12 4.724 1.187 4.724 1.187-3.406-2.264-6.746-9.383-8.35-13.756-1.604-4.373-6.504-7.515-6.504-7.515-6.592 10.218-12.525 8.833-12.525 8.833 1.406 13.119-8.922 14.372-8.922 14.372-2.043 6.328-7.954 6.086-15.865 7.185-7.91 1.099-8.614 6.68-8.614 6.68 3.538.088 8.24-4.285 8.24-4.285s-2.439 4.417-8.394 6.57c-5.933 2.154-8.174 6.329-10.46 11.866-2.285 5.538-3.164 6.703-3.164 6.703 3.252-1.143 9.625-6.966 9.625-6.966-2.175 5.647-14.898 11.47-16.788 15.755-1.89 4.285 1.252 8.922 1.252 8.922 11.207 1.845 20.678-12.042 20.678-12.042s-.989 3.67-7.713 9.493c-6.702 5.823-13.712 4.043-13.712 4.043.637 1.67-2.922 3.735-2.922 3.735 1.296 1.077.945 4.176.659 5.538-.286 1.384-.044 5.01-.044 5.01s-.11 0 1.648 1.648-.308 3.648-.308 3.648c1.692-.176 3.56-2.286 3.714-3.89.176-1.604 2.285-2.483 2.285-2.483 1.12 2.461-.725 4.79-.725 4.79 2 7.757-5.78 6.241-5.78 6.241 3.1.791 3.78 4.043 3.78 4.043 4.68-2.219 4.55-12.876 4.637-14.568.11-1.714 9.075-4.197 9.075-4.197 4.087 8.811 9.032 10.218 12.13 11.47 3.12 1.253 21.139 1.538 23.227 20.722 2.087 19.183 12.59 24.5 18.502 27.423 5.91 2.923 10.393 13.316 7.47 19.491-2.922 6.153-10.547 4.834-10.547 4.834-2.505 3.428-2.46 7.252-2.46 7.252 2.768-3.34 5.603 1.67 5.603 1.67s.197-1.362.241-2.835c.022-1.45 3.165-4.219 3.868-3.89.68.309-.616 1.913-1.846 3.143-1.23 1.23-.308 3.164-.308 3.164s.396-.703 1.626-1.933 3.472 4.13 3.472 4.13 2.308-4.262 3.143-4.811c.835-.55 5.757 3.274 5.757 3.274s-.22-1.1.132-3.428c.33-2.308 4.812-1.209 4.812-1.209s-.681-2.021-.593-4.57c.065-2.55-.44-5.01-.44-5.01 3.78.527 5.713-2 5.713-2-2.46.176-4.109-2.9-4.109-2.9 2.483.593 4.988-1.21 4.988-1.21-3.208.55-5.208-2.526-5.208-2.526 3.626 1.23 6.417-1.34 6.417-1.34-4.812.944-6.944-3.055-6.944-3.055.571-5.318-.505-11.053-.505-11.053-6.505 3.735-9.45-1.868-9.34-6.043.11-4.175-1.142-9.756-1.142-9.756 10.108 3.713 13.8-2.396 14.195-3.01.396-.616 1.23-3.297 3.01-1.297 1.78 1.977-1.955 4.416-1.955 4.416s2.879 1.846 4.593-.44c1.714-2.284-.813-5.515-.813-5.515s7.998-.307 6.68-3.845zM293.94 140.74c1.275 6.877 3.78 10.086 3.78 10.086"/><path fill="#fff" d="M275.965 155.067c-2.724 2.834-5.295 4.065-5.295 4.065 1.45-.725 3.252-4.11 3.252-4.11-2.198-1.164-1.319-4.943-1.319-4.943.374 3.955 3.362 4.988 3.362 4.988zm-15.909-18.15s-3.098-6.593 5.34-8.834m21.886 11.58s.088-2.132-.527-4.922c0 0-5.296-.22-9.405 3.516 0 0 2.131-4.593 8.877-6.395 0 0-6.856-9.888-10.481-11.273 0 0-12.394.528-17.272 6.834-4.878 6.329-2.769 13.866-2.769 13.866s8.57 7.405 4.373 13.69c-4.197 6.306-11.14 11.668-11.14 11.668s1.713.396 2.724.242c0 0-.857 1.626-6.746 2.175-5.89.571-11.25 3.274-11.449 7.032 0 0 2.593.022 3.23 1.099 0 0 1.297-1.583 2.396-1.956 0 0-1.692 2.527-1.45 4.329.241 1.78 1.494-1.165 2.549-2.308 1.054-1.142 5.12-1.89 3.757 4.967 0 0 4.043-1.165 4-4.571 0 0 2.219 2.549 4.13 3.076 0 0 2.791-4.878 4.198-4.153 1.384.725 2.043 2.044 2.043 2.044s1.077-3.362-.417-6.285c0 0 4.79-4.263 6.196-4.922 0 0 1.846 3.758 5.67 3.714 0 0-2.264-5.714-.352-4.505 1.912 1.209 3.56 1.582 3.56 1.582s-3.274-5.427-1.011-4.219c2.263 1.187 3.142 1.934 3.142 1.934s-3.164-4.834-.835-6.35c2.33-1.539 7.889-7.714 3.78-8.153-4.11-.44-2.923-4.922-2.11-6.307.835-1.472 2.417-4.702 11.339-5.45zM123.685 93.298h47.31v71.327h-47.31zm47.31-39.312h47.31v39.29h-47.31zM267.9 27.068s.484.703 1.187 1.23c0 0-.043-.988.528-2.329 0 .022-1.319.813-1.714 1.099zm1.583 6.065s.813.285 1.714.417c0 0-1.318-1.186-1.472-2.043 0 0-.44.33-.242 1.626zM73.936 27.134s-.483.703-1.187 1.23c0 0 .044-.989-.527-2.329 0 .022 1.318.813 1.714 1.099zm-1.582 6.065s-.813.285-1.714.417c0 0 1.318-1.186 1.472-2.043 0 0 .44.33.242 1.626z"/></svg>