<svg xmlns="http://www.w3.org/2000/svg" width="804" height="464"><g opacity=".16" fill="#fff"><path d="M247.253 264.661s7.437 2.376 8.883 2.428c0 0-6.25-4.752-7.127-6.817 0 0-.413 3.666-1.756 4.39zm-.465 12.808s4.08 2.582 7.385 3.667c0 0-4.08-6.25-4.441-9.451 0-.052-2.53 3.563-2.944 5.784zm3.46-66.827c.982 3.409 4.132 5.268 4.132 5.268.051-1.291 7.075-5.32 7.075-5.32-4.39-2.117-11.207.052-11.207.052zm11.62 197.691s-3.46-6.713-10.793-7.281c0 0 6.094 8.418 5.835 10.483 0-.051 3.409-.051 4.958-3.202zM509.963 90.055c-1.084-1.756-4.7-1.808-4.7-1.808-1.239 4.08-.258 8.212-.258 8.212 1.55-1.498 4.958-6.404 4.958-6.404zm14.047-15.958s-7.075-1.91-10.122 2.376c-3.047 4.338-7.23 9.709-7.23 9.709l5.267 2.014c0-.052 9.606-9.812 12.085-14.099zM249.37 251.44s4.338 3.512 7.23 3.46c0 0-4.44-5.938-4.7-7.384 0 .051-2.633 2.479-2.53 3.925zm47.357-165.258s-4.183-5.371-7.23-9.71c-3.047-4.337-10.122-2.375-10.122-2.375 2.427 4.287 12.085 14.099 12.085 14.099zm-3.357 3.873s3.409 4.958 4.958 6.404c0 0 .982-4.183-.31-8.211.052-.052-3.563.051-4.647 1.807zm-6.816-5.061s-6.25-4.855-10.226-10.587c-3.976-5.784-10.793-.981-10.793-.981 4.906 3.202 16.68 14.873 16.68 14.873 2.428 0 4.339-3.305 4.339-3.305zm-7.385 4.7s-4.08 2.065-4.184 4.234c0 0 4.235 4.183 5.63 4.803 0 .052 0-5.784-1.446-9.038zm-22.775 14.563s-5.526 8.624 6.094 8.831m26.699-24.221s-3.408.672-4.906 2.014c0 0 4.028 4.958 5.371 6.198.052.051.568-3.925-.465-8.212zM262.85 419.902c1.187-2.376.929-7.489.929-7.489-2.014 1.86-5.68 2.014-5.68 2.014 1.755.723 4.75 5.475 4.75 5.475zM526.799 85.2s6.817 5.578 4.596 10.226c0 0 10.277 2.22 12.86-4.286 0 0 1.755 3.924-.362 6.61 0 0 1.859 1.55 3.46 1.291 1.6-.258 1.704 2.53 1.343 3.77 0 0 3.666 1.653 3.202 5.474 0 0 5.835-4.028 5.474-9.037-.362-5.01-3.305-7.902-3.305-7.902s6.92 3.357 6.765 9.967c-.155 6.61-6.61 10.07-6.61 10.07s7.9 7.902 11.826 10.588c0 0-9.658-1.86-16.32-7.592 0 0 1.137 19.573-2.892 24.324 0 0 3.202.052 4.752-1.6 1.549-1.653 6.042-4.442 4.648.412-1.395 4.855-6.817 10.07-6.817 10.07s8.934-1.548 12.187-5.473c3.254-3.925 6.508-2.48 3.15 3.098-3.408 5.526-7.85 9.71-7.85 9.71s9.348-1.344 12.447-4.287c3.099-2.944 3.15-.104 3.254 2.479 0 0 3.201-12.756 7.591-18.334 0 0-3.925-2.634-6.3-7.385 0 0 6.145 3.77 8.986 3.873 0 0 7.333-7.488 13.014-10.122 0 0-10.174-4.441-14.46-11.671 0 0-.568 5.836 1.497 8.16 0 0-9.915-8.263-10.432-16.836-.516-8.625.052-9.4.052-9.4l-21.639-15.596s-5.99-5.37-9.296-2.065c-3.305 3.408-12.91 8.366-14.821 11.465z" opacity=".16"/><path d="M220.502 131.37c2.788-.104 8.986-3.873 8.986-3.873-2.376 4.7-6.3 7.385-6.3 7.385 4.389 5.577 7.59 18.333 7.59 18.333.104-2.582.156-5.423 3.254-2.479 3.099 2.944 12.446 4.286 12.446 4.286s-4.441-4.183-7.85-9.709c-3.408-5.525-.154-7.023 3.15-3.098 3.254 3.925 12.189 5.474 12.189 5.474s-5.423-5.216-6.817-10.07c-1.395-4.855 3.098-2.066 4.648-.414 1.549 1.653 4.75 1.601 4.75 1.601-4.079-4.854-2.943-24.427-2.943-24.427-6.61 5.732-16.32 7.592-16.32 7.592 3.926-2.634 11.827-10.587 11.827-10.587s-6.455-3.46-6.61-10.07c-.155-6.611 6.765-9.968 6.765-9.968s-2.892 2.892-3.305 7.902c-.413 5.009 5.474 9.037 5.474 9.037-.465-3.821 3.202-5.474 3.202-5.474-.362-1.24-.258-4.028 1.343-3.77 1.6.258 3.46-1.291 3.46-1.291-2.118-2.686-.362-6.61-.362-6.61 2.53 6.507 12.86 4.286 12.86 4.286-2.221-4.7 4.596-10.225 4.596-10.225-1.911-3.1-11.517-8.057-14.77-11.362-3.305-3.305-9.296 2.066-9.296 2.066L230.83 91.5s.568.826.052 9.4c-.516 8.572-10.432 16.835-10.432 16.835 2.066-2.324 1.498-8.16 1.498-8.16-4.287 7.23-14.46 11.672-14.46 11.672 5.68 2.633 13.014 10.122 13.014 10.122zm429.88-81.803c10.38-3.667 20.709-2.634 13.995 16.577-6.765 19.211-31.038 12.395-31.038 12.395-.413 10.69 7.643 11.723 7.643 11.723-2.995-2.014-2.169-8.47-2.169-8.47 11.104 4.39 33.207-4.183 37.339-15.545 4.131-11.361-1.291-20.76-1.291-20.76 12.394 2.22 18.075-2.84 18.075-2.84-2.428-.465-5.733-3.254-5.733-3.254 6.352-.775 15.029-5.371 15.029-5.371-2.376.103-4.648-3.047-4.648-3.047 5.577-.723 13.892-6.404 13.892-6.404-7.695 1.085-21.07-5.887-21.07-5.887-6.198 18.953-29.696 19.005-29.696 19.005-11.826 12.704-20.45-3.77-20.45-3.77s-11-.93-15.287 5.939c-4.286 6.817 2.582 4.957 4.648 2.22 2.014-2.737 8.934-4.338 8.934-4.338s-6.145 6.662-9.296 8.625c-3.15 2.014-5.784 2.065-5.784 2.065-.826 5.888 5.836 13.686 5.836 13.686s18.024-11.517 21.07-12.55zM552.259 401c-7.333.62-10.793 7.282-10.793 7.282 1.549 3.15 4.906 3.202 4.906 3.202-.207-2.066 5.887-10.484 5.887-10.484zm-11.775 18.902s3.047-4.752 4.751-5.475c0 0-3.666-.206-5.68-2.014 0 0-.31 5.113.93 7.489zM658.128 35.365s-5.423-.775-12.446-.723m44.517-19.16c-.723-4.803-8.057-14.667-8.057-14.667-1.342 6.456-7.333 11.207-7.333 11.207 4.441 9.967 15.39 3.46 15.39 3.46z" opacity=".16"/><path d="M653.687 31.285c8.314.465 22.775 1.29 29.075-8.057 0 0-9.864-.154-11.465-7.023 0 0-4.286 6.3-11.258 6.817-6.92.516-14.564 3.202-19.16 8.986.052 0 4.545-1.24 12.808-.723zm-106.695 72.972c-2.892 2.53-6.095 8.831-6.095 8.831m-16.732-23.394c-1.498 3.253-1.446 9.089-1.446 9.089 1.394-.672 5.63-4.803 5.63-4.803-.104-2.22-4.184-4.287-4.184-4.287zM513.63 97.13c1.342-1.24 5.37-6.197 5.37-6.197-1.445-1.343-4.905-2.014-4.905-2.014-.982 4.235-.465 8.211-.465 8.211zm3.15-12.136s1.91 3.357 4.338 3.253c0 0 11.775-11.67 16.68-14.873 0 0-6.764-4.751-10.793.981-3.976 5.784-10.225 10.639-10.225 10.639zm34.653 162.573c-.258 1.446-4.7 7.385-4.7 7.385 2.892.052 7.23-3.46 7.23-3.46.104-1.497-2.53-3.925-2.53-3.925zm2.892 12.705c-.878 2.117-7.127 6.817-7.127 6.817 1.446-.052 8.883-2.428 8.883-2.428-1.291-.723-1.756-4.39-1.756-4.39zm-.723 11.361c-.362 3.202-4.442 9.451-4.442 9.451 3.306-1.084 7.385-3.667 7.385-3.667-.413-2.169-2.943-5.784-2.943-5.784zm-.517-60.991s-6.817-2.169-11.206-.051c0 0 7.023 4.08 7.075 5.319 0 0 3.099-1.86 4.131-5.268zm143.362 235.856c.31 8.005 5.113 8.624 5.113 8.624-.878-1.549.31-8.52.31-8.52-1.962-1.189-5.423-.104-5.423-.104zM569.25 418.456c-4.028-.62-7.23 4.492-7.23 4.492-.878 3.46 1.859 12.55 1.859 12.55 7.695-2.892 9.399-16.371 5.37-17.042zm26.441 4.854c4.545 3.047 5.32 8.211 5.32 8.211 7.126-6.868.051-14.408.051-14.408-1.962.826-5.37 6.197-5.37 6.197zm-44.981-7.54c-3.925 1.55-2.428 9.709-2.428 9.709m-295.658-9.709c-3.925-1.55-3.977 10.07 2.427 9.709m-13.737-2.53s-3.202-5.113-7.23-4.493c-4.028.67-2.324 14.15 5.37 17.042 0 0 2.738-9.09 1.86-12.55z" opacity=".16"/><path d="M557.733 426.512s-6.713.93-10.483 4.596c-2.118-1.084-3.977-3.305-4.597-7.023h-281.56c-.62 3.718-2.478 5.99-4.596 7.023-3.718-3.666-10.483-4.596-10.483-4.596s.516 7.385-4.907 14.667v8.52H562.64v-8.52c-5.422-7.282-4.906-14.667-4.906-14.667zm138.921 13.272c2.272.723 6.404 3.77 6.404 3.77-.155-4.338 6.559-12.91 6.559-12.91-10.38 1.032-12.963 9.14-12.963 9.14zm33.723 9.916c-4.08-2.066-5.68 2.789-5.68 2.789.206 1.91 3.305 10.793 3.305 10.793 2.788-2.066 6.455-11.465 2.375-13.582zm29.437-4.596c1.188 1.084 2.014 11.464 2.014 11.464s7.333-5.577 5.061-10.432c-2.22-4.906-7.075-1.032-7.075-1.032zM590.733 236.103c-4.596.98-14.202 5.68-14.202 5.68 8.367 12.963 1.137 25.46 1.137 25.46 23.497-9.089 13.065-31.14 13.065-31.14zm81.339 67.343c-11.93-40.386-28.507-27.785-28.507-27.785m70.751 173.574c-3.615-2.737-6.404-.413-6.404-.413-.671 8.056 6.817 10.483 6.817 10.483-.981-3.821 3.202-7.333-.413-10.07zM93.717 430.643s6.714 8.573 6.559 12.911c0 0 4.131-3.047 6.404-3.77 0 0-2.583-8.108-12.963-9.14zM73.008 449.7c-4.08 2.066-.413 11.516 2.376 13.53 0 0 3.047-8.882 3.305-10.793-.052.052-1.601-4.803-5.68-2.737zm-36.563-3.615c-2.273 4.906 5.06 10.432 5.06 10.432s.879-10.38 2.066-11.465c-.051.052-4.854-3.822-7.126 1.033zm52.573 3.15c-3.616 2.737.568 6.249-.362 10.07 0 0 7.488-2.427 6.817-10.483 0 0-2.84-2.376-6.455.413zM101.205 33.97s8.625 4.597 15.029 5.371c0 0-3.306 2.789-5.733 3.254 0 0 5.681 5.01 18.075 2.84 0 0-5.422 9.4-1.29 20.76 4.13 11.362 26.234 19.935 37.338 15.545 0 0 .826 6.456-2.17 8.47 0 0 8.057-1.033 7.644-11.723 0 0-24.324 6.817-31.038-12.395-6.765-19.21 3.563-20.244 13.995-16.577 3.047 1.084 21.174 12.55 21.174 12.55s6.714-7.747 5.836-13.686c0 0-2.686-.104-5.784-2.066-3.15-1.962-9.296-8.624-9.296-8.624s6.869 1.6 8.934 4.338c2.014 2.737 8.935 4.596 4.648-2.221-4.286-6.817-15.286-5.94-15.286-5.94s-8.625 16.475-20.451 3.77c0 0-23.498-.102-29.695-19.004 0 0-13.376 6.972-21.07 5.887 0 0 8.314 5.681 13.892 6.404-.104 0-2.376 3.15-4.752 3.047zm56.447.672c-7.024-.052-12.446.723-12.446.723m57.066 381.696s-7.076 7.54.051 14.409c0 0 .775-5.165 5.32-8.212 0 .052-3.409-5.319-5.371-6.197zM128.473 12.022S122.534 7.27 121.14.815c0 0-7.334 9.864-8.057 14.667.052 0 11 6.507 15.39-3.46zm-27.009 434.631s1.187 6.92.31 8.521c0 0 4.802-.62 5.112-8.624.052-.052-3.46-1.137-5.422.103zM212.6 236.103s-10.432 22.051 13.066 31.089c0 0-7.23-12.446 1.136-25.46 0 .051-9.554-4.648-14.202-5.63zm-80.718 67.239s12.652-22.155 28.507-27.784m83.352-11s3.15-2.272 3.254-5.474c0 0-5.268-4.7-7.643-10.225 0 0 .723 6.093.051 7.694-.723 1.55-.103 7.334 4.338 8.005z" opacity=".16"/><path d="M149.647 31.285c8.315-.517 12.807.723 12.807.723-4.596-5.784-12.239-8.47-19.16-8.986-6.92-.517-11.258-6.817-11.258-6.817-1.6 6.869-11.464 7.023-11.464 7.023 6.3 9.296 20.76 8.522 29.075 8.057zm406.692 227.747c.103 3.202 3.253 5.475 3.253 5.475 4.442-.62 5.061-6.456 4.338-8.005-.723-1.601.052-7.695.052-7.695-2.376 5.577-7.643 10.225-7.643 10.225zM93.82 95.787c.207.155.414.259.62.362" opacity=".16"/><path d="M197.985 231.713s-5.939 17.714-24.22 25.512c0 0 10.845-6.662 15.286-18.179 0 0-6.507 3.099-14.873 2.79-8.315-.31-12.085-2.067-6.508-9.865 0 0 1.653-6.197-1.91-4.39-3.615 1.808-9.451.104-9.451.104s3.563-.981 5.732-3.46c0 0-1.549-.878-3.253-2.996 0 0 4.854-1.6 6.662-2.943 0 0-10.122-8.057-12.55-15.08 0 0 3.564-1.601 5.94-4.08 0 0-2.996-7.127-9.555-9.967-1.549 27.37-18.488 29.591-18.488 29.591s7.592-2.427 11.052-13.892c4.183-13.84-.104-18.23 6.094-33.826 0 0-6.662-9.45-8.78-17.352 0 0 14.925 23.807 34.033 32.122 0 0 8.367-3.873 6.043-11.775-2.324-7.901-5.991-16.629-4.029-20.605 0 0 1.446 3.666 4.7 8.779 3.202 5.113 10.587 22.413-7.488 28.972 0 0-12.343-6.869-19.831-16.371 0 0-3.047 6.094-3.15 9.502 0 0 10.535 7.024 14.821 15.803 0 0-3.977 3.873-6.61 4.751 0 0 4.854 9.606 11.31 13.066 0 0-.93 3.15-3.202 5.113 0 0 2.014 4.7 9.347-3.46 0 0-1.807 5.526-4.08 7.85-2.272 2.324-1.342 3.77 3.357 1.136 4.7-2.634 9.244-5.836 9.244-5.836s-5.06 6.817-9.554 9.657c-4.493 2.84-6.662 5.94-3.615 6.094 2.892.104 18.592.517 24.892-9.812.207-.31.465-.62.568-1.033 7.747 0 14.409 4.751 14.409 4.751s-6.61-.774-12.343-.671zM145.257 94.651c-22.62-2.169-31.244-27.887-31.244-27.887m7.901 66.207c-21.328-7.747-23.549-19.831-23.549-19.831m56.601 13.892c6.456 5.577 15.855 11.258 15.855 11.258s-13.428-4.493-20.916-12.033C142.468 118.77 134.051 115 134.051 115c5.06.774 14.46 6.455 20.915 12.033zM93.82 95.839c-3.408-2.272-19.366-14.563-4.183-42.554M253.4 232.539c-.672-3.253-1.498-10.483 1.549-13.014 0 0-8.366-4.854-6.869-8.78 0 0-16.474 4.184-32.225-9.502-15.751-13.685-18.127-22.31-18.127-22.31s22.258 32.639 48.596 28.301c0 0 7.334-10.948 2.944-20.967-4.441-10.02-34.343-23.756-39.455-37.029 0 0 14.976 13.634 22.62 16.371 0 0-2.015-2.737-7.437-15.75-5.371-13.015-10.639-22.827-24.583-27.888-13.943-5.061-19.727-15.442-19.727-15.442s11.103 10.277 19.366 10.07c0 0-1.653-13.168-20.244-15.699-18.592-2.582-32.484-2.014-37.287-16.887 0 0-24.272-2.892-20.967-33.775 0 0-13.944 3.305-29.437-20.76 0 0-11.516 7.384-15.286 17.661-3.77 10.277-11.62 27.01-19.625 32.33 0 0 6.197-.156 11.104-2.79 0 0-22.052 18.385-7.695 62.747 0 0 1.807-12.498 4.131-15.39 0 0-2.789 36.15 2.892 50.766 0 0 6.3-13.582 10.122-19.057 0 0-.155 30.057 4.803 41.832 0 0 8.211-20.916 11.723-24.17 0 0 .878 24.48 4.855 40.437 0 0 6.507-18.178 14.357-24.685 0 0 16.68 9.244 14.615 32.019-2.066 22.774-32.897 32.793-32.897 32.793s16.37-8.986 21.535-19.211c5.216-10.225 4.338-22.517-1.55-36.357 0 0 3.048 32.432-23.394 54.38-26.441 21.949-28.094 43.794-28.61 50.714-.517 6.92-13.789 18.953-24.634 8.676s-5.836-29.075 15.235-42.399c21.07-13.376 31.967-26.028 31.14-47.409-.774-21.38-32.948-39.455-34.704-71.526 0 0-15.441 19.418-.206 33.62 15.235 14.202 29.746 25.977 30.624 31.348 0 0-8.366-12.136-19.986-17.559-11.62-5.423-14.202-5.32-14.202-5.32s-.568 9.193 4.597 11.207c5.112 2.014 21.948 2.014 27.526 13.066 0 0-7.076-9.296-24.066-9.502 0 0-.052 11.413 10.897 9.037 10.896-2.375 12.497 3.46 12.497 3.46s-8.986-5.525-15.286 1.446c-6.249 6.972 2.789 11.723 5.784 6.404 2.995-5.319 9.399-5.629 8.005.31-1.446 5.94-4.287 17.662-28.25 31.4-23.962 13.736-27.577 35.014-27.732 40.023-.206 5.01-4.028 11.052-9.037 6.455-5.01-4.596 1.032-11.774 1.032-11.774s-8.986-1.085-12.084 7.23c-3.099 8.314 15.648 9.192 15.648 9.192s-5.888 7.592-1.911 12.963c4.028 5.37 10.793 1.033 10.793 1.033s-8.779-5.733-4.596-10.38c4.183-4.649 6.146 1.652 7.075 3.046.93 1.446 9.606 15.803 33.362 7.075 0 0-2.892 13.118-2.686 22.93.207 9.812-6.662 22.981-21.948 14.202 0 0-2.53 13.53-1.188 25.977 0 0-4.958 9.45-16.32 7.178 0 0 6.56 6.042 15.08 3.15 0 0-4.699 7.23-12.239 5.94 0 0 5.836 4.234 11.723 2.84 0 0-3.873 7.282-9.657 6.817 0 0 4.596 5.99 13.427 4.7 0 0-1.24 5.783-1.033 11.774.155 6.042-1.394 10.742-1.394 10.742s10.535-2.634 11.31 2.84c.775 5.423.31 8.057.31 8.057s11.568-8.986 13.53-7.695c1.963 1.29 7.385 11.31 7.385 11.31s5.268-12.601 8.16-9.71c2.892 2.893 3.822 4.545 3.822 4.545s2.169-4.544-.723-7.436c-2.892-2.892-5.94-6.662-4.338-7.385 1.652-.723 8.986 5.784 9.089 9.14.052 3.409.568 6.663.568 6.663s6.662-11.775 13.17-3.925c0 0 .154-8.986-5.785-17.043 0 0-17.92 3.15-24.789-11.361-6.868-14.512 3.667-38.94 17.559-45.808 13.892-6.869 38.578-19.366 43.484-64.451 4.906-45.085 47.253-45.756 54.587-48.7 7.333-2.943 18.953-6.249 28.507-26.958 0 0 21.07 5.888 21.329 9.864.258 4.028-.104 29.024 10.896 34.24 0 0 1.601-7.592 8.883-9.502 0 0-18.282 3.563-13.582-14.667 0 0-4.338-5.474-1.704-11.258 0 0 5.01 2.065 5.37 5.835.414 3.77 4.752 8.728 8.728 9.141 0 0-4.906-4.751-.723-8.573 4.132-3.821 3.874-3.873 3.874-3.873s.671-8.366 0-11.62zM104.717 354.005s5.887-7.54 8.883-23.705" opacity=".16"/><path d="M180.736 300.554c19.831 5.267 12.55 20.76 12.55 20.76m-37.39 42.658s7.023-2.428 7.901-11.723c0 0 2.066 8.882-3.098 11.62 0 0 4.234 7.9 7.643 9.657-.005-.003-6.045-2.895-12.446-9.554zm71.784 32.897c-13.84-1.343-15.854-5.113-15.854-5.113 2.375.361 6.455-.568 6.455-.568s-16.32-12.653-26.183-27.423c-9.864-14.77 10.277-32.174 10.277-32.174s4.958-17.713-6.507-32.587c-11.465-14.873-40.592-16.06-40.592-16.06-8.521 3.304-24.634 26.492-24.634 26.492 15.855 4.183 20.864 15.029 20.864 15.029-9.657-8.78-22.103-8.263-22.103-8.263-1.446 6.558-1.24 11.568-1.24 11.568 20.967 1.807 24.686 9.347 26.545 12.6 1.86 3.254 4.7 13.79-4.958 14.822-9.657 1.033 3.409 15.545 8.883 19.16 5.474 3.615-1.963 14.925-1.963 14.925s2.066-1.704 7.385-4.545c5.32-2.788-2.375 9.916-2.375 9.916s3.822-.878 8.366-3.718c4.493-2.84-.826 10.587-.826 10.587 8.986.154 13.324-8.728 13.324-8.728 3.357 1.55 14.563 11.568 14.563 11.568-3.46 6.869-.981 14.77-.981 14.77s1.498-3.15 4.803-4.803c3.253-1.652 9.864 9.76 9.864 9.76 4.441-1.239 9.709-7.23 9.709-7.23-.104 8.005 9.399 10.742 9.399 10.742-3.202-16.164 6.352-14.408 8.83-11.67 2.48 2.684 5.423 9.605 5.991 5.422.569-4.183-3.408-10.174-3.408-10.174 2.582.878 5.63 4.596 5.63 4.596 1.497-2.53 7.59-2.582 7.59-2.582-.412-8.624-13.013-14.977-26.854-16.32zm292.199-3.615h-236.01V119.595h236.01zm25.666-277.48s-5.112 1.755-9.192.31c.671-3.15 3.047-10.794 8.056-13.686-2.582-.517-4.441-1.343-5.784-3.512-4.235 1.394-5.526.62-8.934-.775-3.667 4.338-8.057 5.061-8.057 5.061s-2.788-3.408-3.098-6.558c-1.808 1.497-3.822 3.511-4.855 5.68-1.342-1.032-3.46-2.943-4.441-5.732-2.685 2.944-3.977 6.559-3.977 6.559-2.633-2.53-4.234-9.193-4.234-9.193H302.666s-1.6 6.662-4.234 9.193c0 0-1.343-3.564-3.977-6.559-.981 2.789-3.099 4.7-4.441 5.733-1.033-2.17-2.996-4.184-4.803-5.681-.31 3.15-3.099 6.558-3.099 6.558s-4.39-.67-8.056-5.06c-3.409 1.394-4.7 2.168-8.934.774-1.292 2.17-3.202 2.995-5.784 3.512 5.009 2.892 7.385 10.535 8.056 13.685-4.08 1.446-9.193-.31-9.193-.31v89.189c6.25.516 10.277 4.596 10.277 4.596s-7.488 4.131-10.277 10.019v178.066c12.292 9.141 10.587 21.277 10.587 21.277h266.17s-1.704-12.084 10.587-21.277V219.577c-2.788-5.888-10.277-10.02-10.277-10.02s4.029-4.079 10.277-4.595v-89.189zm37.287 65.483c-7.179 6.507-8.78 16.578-2.479 19.522l-6.507 3.253s-5.423-5.422-3.254-12.498c2.118-7.075 20.503-18.591 24.221-26.131 0 0-4.854 9.399-11.981 15.854zm127.818-85.47c-.414.259-.62.362-.62.362" opacity=".16"/><path d="M655.236 189.159c-6.559 2.84-9.554 9.967-9.554 9.967 2.324 2.479 5.94 4.08 5.94 4.08-2.48 6.972-12.55 15.08-12.55 15.08 1.807 1.394 6.662 2.943 6.662 2.943-1.705 2.17-3.254 2.996-3.254 2.996 2.17 2.479 5.733 3.46 5.733 3.46s-5.888 1.652-9.451-.104c-3.615-1.807-1.911 4.39-1.911 4.39 5.577 7.798 1.808 9.554-6.507 9.864-8.315.31-14.822-2.789-14.822-2.789 4.442 11.517 15.287 18.179 15.287 18.179-18.23-7.798-24.221-25.512-24.221-25.512-5.732-.103-12.291.568-12.291.568s6.662-4.751 14.408-4.751c.104.413.362.723.568 1.033 6.3 10.328 21.949 9.915 24.892 9.812 2.996-.103.878-3.254-3.614-6.094-4.493-2.84-9.606-9.657-9.606-9.657s4.544 3.253 9.244 5.835c4.7 2.634 5.63 1.188 3.357-1.136-2.273-2.324-4.08-7.85-4.08-7.85 7.333 8.16 9.347 3.46 9.347 3.46-2.272-1.91-3.201-5.112-3.201-5.112 6.455-3.46 11.31-13.066 11.31-13.066-2.634-.878-6.61-4.751-6.61-4.751 4.286-8.78 14.82-15.803 14.82-15.803-.154-3.408-3.15-9.502-3.15-9.502-7.436 9.502-19.83 16.37-19.83 16.37-18.076-6.506-10.69-23.807-7.489-28.971 3.202-5.113 4.7-8.78 4.7-8.78 1.962 3.925-1.704 12.705-4.028 20.606-2.324 7.901 6.042 11.775 6.042 11.775 19.108-8.315 34.033-32.123 34.033-32.123-2.118 7.902-8.78 17.353-8.78 17.353 6.198 15.596 1.911 19.934 6.094 33.826 3.46 11.465 11.052 13.892 11.052 13.892s-16.99-2.117-18.54-29.488zm-5.732-62.127c6.455-5.578 15.854-11.259 20.915-12.033 0 0-8.418 3.77-15.854 11.258-7.437 7.488-20.916 12.033-20.916 12.033s9.4-5.63 15.855-11.258zm41.004-60.268c-2.788 32.432-31.244 27.887-31.244 27.887m46.892 18.489c.362 17.094-23.549 19.83-23.549 19.83m32.226-79.685s24.892 25.357-4.183 42.554m92.338 205.85c-3.099-8.314-12.085-7.54-12.085-7.54s6.094 7.18 1.033 11.776c-5.06 4.596-8.882-1.446-9.038-6.456-.206-5.01-3.821-26.286-27.732-40.024-23.963-13.737-26.803-25.408-28.249-31.399-1.446-5.939 5.01-5.577 8.005-.31 2.995 5.268 12.033.569 5.784-6.403-6.3-6.972-15.287-1.446-15.287-1.446s1.601-5.888 12.498-3.46c10.897 2.375 10.897-9.038 10.897-9.038-17.043.258-24.066 9.502-24.066 9.502 5.578-11 22.413-11.051 27.526-13.065 5.113-2.015 4.596-11.207 4.596-11.207s-2.582-.103-14.202 5.32c-11.62 5.422-19.986 17.558-19.986 17.558.878-5.371 15.39-17.146 30.625-31.348 15.235-14.202-.207-33.62-.207-33.62-1.704 32.123-33.878 50.146-34.704 71.527-.775 21.38 10.122 34.084 31.14 47.408 21.072 13.376 26.08 32.123 15.236 42.4-10.845 10.277-24.118-1.756-24.634-8.677-.517-6.92-2.17-28.765-28.61-50.713-26.494-21.949-23.395-54.38-23.395-54.38-5.887 13.84-6.766 26.182-1.55 36.356 5.216 10.225 21.536 19.211 21.536 19.211s-30.831-10.07-32.897-32.793c-2.066-22.775 14.615-32.02 14.615-32.02 7.85 6.508 14.357 24.686 14.357 24.686 3.976-15.957 4.854-40.436 4.854-40.436 3.512 3.253 11.723 24.169 11.723 24.169 4.958-11.827 4.855-41.831 4.855-41.831 3.822 5.474 10.122 19.056 10.122 19.056 5.63-14.615 2.892-50.765 2.892-50.765 2.324 2.892 4.132 15.39 4.132 15.39 14.357-44.362-7.695-62.747-7.695-62.747 4.906 2.633 11.103 2.788 11.103 2.788-8.005-5.319-15.854-22.051-19.624-32.329-3.77-10.277-15.287-17.662-15.287-17.662-15.493 24.015-29.437 20.761-29.437 20.761 3.306 30.831-20.967 33.775-20.967 33.775-4.803 14.873-18.695 14.305-37.286 16.887-18.592 2.582-20.245 15.7-20.245 15.7 8.315.206 19.367-10.07 19.367-10.07s-5.733 10.38-19.728 15.44c-13.944 5.062-19.212 14.874-24.582 27.888-5.371 13.014-7.437 15.752-7.437 15.752 7.643-2.686 22.62-16.371 22.62-16.371-5.113 13.272-35.014 26.957-39.456 37.028-4.441 10.07 2.944 20.967 2.944 20.967 26.338 4.338 48.596-28.3 48.596-28.3s-2.324 8.624-18.127 22.31c-15.75 13.685-32.225 9.502-32.225 9.502 1.498 3.925-6.869 8.78-6.869 8.78 3.047 2.53 2.221 9.812 1.55 13.013-.672 3.254-.104 11.775-.104 11.775s-.258 0 3.874 3.873c4.131 3.874-.723 8.573-.723 8.573 3.976-.413 8.366-5.37 8.727-9.14.414-3.77 5.371-5.836 5.371-5.836 2.634 5.784-1.704 11.258-1.704 11.258 4.7 18.23-13.582 14.667-13.582 14.667 7.282 1.859 8.883 9.502 8.883 9.502 11-5.216 10.69-30.263 10.896-34.24.259-4.028 21.329-9.863 21.329-9.863 9.606 20.708 21.226 24.014 28.507 26.957 7.334 2.944 49.681 3.615 54.587 48.7 4.906 45.085 29.592 57.583 43.484 64.451 13.892 6.869 24.427 31.296 17.559 45.808-6.869 14.46-24.79 11.361-24.79 11.361-5.886 8.057-5.783 17.043-5.783 17.043 6.507-7.85 13.169 3.925 13.169 3.925s.465-3.202.568-6.662c.052-3.409 7.437-9.916 9.09-9.141 1.6.723-1.447 4.493-4.339 7.385-2.892 2.892-.723 7.436-.723 7.436s.93-1.652 3.822-4.544c2.892-2.892 8.16 9.709 8.16 9.709s5.422-10.02 7.384-11.31c1.963-1.291 13.531 7.695 13.531 7.695s-.516-2.582.31-8.057c.775-5.422 11.31-2.84 11.31-2.84s-1.601-4.751-1.395-10.742c.155-5.99-1.032-11.775-1.032-11.775 8.882 1.24 13.427-4.7 13.427-4.7-5.784.414-9.657-6.816-9.657-6.816 5.835 1.394 11.723-2.84 11.723-2.84-7.54 1.29-12.24-5.94-12.24-5.94 8.521 2.893 15.08-3.15 15.08-3.15-11.31 2.22-16.32-7.178-16.32-7.178 1.343-12.498-1.187-25.977-1.187-25.977-15.286 8.78-22.207-4.39-21.948-14.202.258-9.812-2.686-22.93-2.686-22.93 23.756 8.728 32.432-5.629 33.362-7.075.93-1.446 2.892-7.746 7.075-3.047 4.183 4.648-4.596 10.38-4.596 10.38s6.765 4.339 10.793-1.032-1.91-12.963-1.91-12.963 18.797-.723 15.699-9.037zM690.818 330.3c2.996 16.165 8.883 23.705 8.883 23.705" opacity=".16"/><path d="M648.574 363.972c-6.404 6.662-12.446 9.554-12.446 9.554 3.408-1.705 7.643-9.658 7.643-9.658-5.164-2.737-3.099-11.62-3.099-11.62.878 9.296 7.902 11.724 7.902 11.724zm-37.39-42.658s-7.282-15.493 12.55-20.76m51.436 27.216s.207-5.01-1.24-11.568c0 0-12.445-.517-22.102 8.262 0 0 5.009-10.793 20.863-15.028 0 0-16.112-23.24-24.634-26.493 0 0-29.126 1.24-40.591 16.061-11.465 14.874-6.507 32.587-6.507 32.587s20.14 17.404 10.277 32.174c-9.864 14.822-26.183 27.423-26.183 27.423s4.028.93 6.403.568c0 0-2.014 3.821-15.854 5.113-13.84 1.342-26.442 7.694-26.906 16.525 0 0 6.093.052 7.591 2.583 0 0 3.047-3.719 5.63-4.597 0 0-3.977 5.94-3.41 10.174.569 4.183 3.512-2.737 5.991-5.422 2.48-2.686 12.033-4.442 8.831 11.671 0 0 9.503-2.737 9.4-10.742 0 0 5.216 5.99 9.708 7.23 0 0 6.56-11.465 9.864-9.76 3.254 1.704 4.803 4.802 4.803 4.802s2.53-7.901-.981-14.77c0 0 11.258-10.018 14.563-11.568 0 0 4.338 8.831 13.324 8.728 0 0-5.319-13.427-.826-10.587s8.366 3.719 8.366 3.719-7.694-12.756-2.375-9.916c5.319 2.789 7.385 4.545 7.385 4.545s-7.437-11.362-1.963-14.925c5.475-3.615 18.54-18.127 8.883-19.16-9.657-1.033-6.869-11.568-4.958-14.822 1.963-3.46 5.681-11.051 26.648-12.807zM290.685 218.802h111.188v167.635H290.685zm111.188-92.39h111.189v92.338H401.873zM629.62 63.149s1.137 1.652 2.79 2.892c0 0-.104-2.324 1.24-5.474 0 .051-3.1 1.91-4.03 2.582zm3.72 14.253s1.91.672 4.027.982c0 0-3.098-2.79-3.46-4.803 0 0-1.033.774-.568 3.821zM173.764 63.304s-1.136 1.652-2.788 2.892c0 0 .103-2.324-1.24-5.474 0 .051 3.099 1.91 4.028 2.582zm-3.718 14.253s-1.91.672-4.028.982c0 0 3.098-2.79 3.46-4.803 0 0 1.033.774.568 3.821z" opacity=".16"/></g></svg>